<svg xmlns="http://www.w3.org/2000/svg" xmlns:xlink="http://www.w3.org/1999/xlink" width="47" zoomAndPan="magnify" viewBox="0 0 35.25 32.999998" height="44" preserveAspectRatio="xMidYMid meet" version="1.0"><defs><clipPath id="e5fdf6be83"><path d="M 24 12 L 34.515625 12 L 34.515625 23 L 24 23 Z M 24 12 " clip-rule="nonzero"/></clipPath><clipPath id="ead62c6b73"><path d="M 24 2.519531 L 31 2.519531 L 31 8 L 24 8 Z M 24 2.519531 " clip-rule="nonzero"/></clipPath><clipPath id="f860cbd8af"><path d="M 6 24 L 28 24 L 28 30.425781 L 6 30.425781 Z M 6 24 " clip-rule="nonzero"/></clipPath><clipPath id="5a252a8f7d"><path d="M 5 2.519531 L 25 2.519531 L 25 12 L 5 12 Z M 5 2.519531 " clip-rule="nonzero"/></clipPath></defs><path fill="#000080" d="M 8.257812 21.660156 C 8.359375 21.699219 8.476562 21.664062 8.546875 21.578125 L 9.292969 20.667969 C 9.363281 20.582031 9.371094 20.464844 9.316406 20.367188 L 8.75 19.433594 L 8.953125 18.773438 L 9.9375 18.308594 C 10.035156 18.257812 10.097656 18.152344 10.085938 18.042969 L 9.96875 16.875 C 9.957031 16.761719 9.878906 16.671875 9.769531 16.644531 L 8.714844 16.382812 L 8.386719 15.773438 L 8.753906 14.746094 C 8.792969 14.644531 8.757812 14.527344 8.671875 14.457031 L 7.761719 13.710938 C 7.675781 13.640625 7.558594 13.632812 7.460938 13.691406 L 6.527344 14.253906 L 5.867188 14.050781 L 5.402344 13.070312 C 5.351562 12.96875 5.246094 12.910156 5.136719 12.917969 L 3.96875 13.035156 C 3.855469 13.046875 3.765625 13.125 3.738281 13.234375 L 3.476562 14.289062 L 2.867188 14.617188 L 1.839844 14.25 C 1.738281 14.214844 1.621094 14.246094 1.550781 14.332031 L 0.804688 15.242188 C 0.734375 15.328125 0.726562 15.445312 0.785156 15.542969 L 1.347656 16.476562 L 1.144531 17.136719 L 0.164062 17.601562 C 0.0625 17.652344 0.00390625 17.753906 0.0117188 17.867188 L 0.128906 19.035156 C 0.140625 19.148438 0.21875 19.238281 0.328125 19.265625 L 1.382812 19.527344 L 1.710938 20.136719 L 1.34375 21.160156 C 1.308594 21.265625 1.339844 21.382812 1.425781 21.453125 L 2.335938 22.199219 C 2.421875 22.269531 2.542969 22.277344 2.636719 22.21875 L 3.570312 21.65625 L 4.234375 21.859375 L 4.699219 22.839844 C 4.730469 22.910156 4.789062 22.960938 4.859375 22.980469 C 4.890625 22.988281 4.925781 22.992188 4.960938 22.988281 L 6.132812 22.871094 C 6.242188 22.863281 6.332031 22.78125 6.359375 22.675781 L 6.621094 21.617188 L 7.230469 21.289062 Z M 6.769531 18.050781 C 6.71875 19 5.90625 19.726562 4.957031 19.675781 C 4.007812 19.625 3.28125 18.8125 3.332031 17.863281 C 3.382812 16.914062 4.195312 16.1875 5.144531 16.238281 C 6.09375 16.289062 6.820312 17.101562 6.769531 18.050781 Z M 6.769531 18.050781 " fill-opacity="1" fill-rule="nonzero"/><g clip-path="url(#e5fdf6be83)"><path fill="#000080" d="M 34.34375 16.964844 L 33.328125 16.574219 L 33.078125 15.929688 L 33.570312 14.957031 C 33.621094 14.859375 33.601562 14.738281 33.527344 14.660156 L 32.714844 13.804688 C 32.640625 13.726562 32.519531 13.703125 32.417969 13.746094 L 31.425781 14.1875 L 30.792969 13.90625 L 30.453125 12.871094 C 30.417969 12.769531 30.320312 12.695312 30.210938 12.691406 L 29.035156 12.664062 C 28.925781 12.660156 28.824219 12.726562 28.785156 12.828125 L 28.390625 13.847656 L 27.746094 14.09375 L 26.773438 13.601562 C 26.675781 13.554688 26.554688 13.570312 26.476562 13.648438 L 25.625 14.457031 C 25.542969 14.53125 25.519531 14.652344 25.5625 14.753906 L 26.003906 15.746094 L 25.722656 16.382812 L 24.691406 16.71875 C 24.585938 16.753906 24.511719 16.851562 24.507812 16.960938 L 24.480469 18.136719 C 24.476562 18.25 24.542969 18.351562 24.648438 18.390625 L 25.664062 18.78125 L 25.910156 19.429688 L 25.421875 20.398438 C 25.371094 20.496094 25.386719 20.617188 25.464844 20.695312 L 26.273438 21.550781 C 26.351562 21.628906 26.46875 21.652344 26.570312 21.609375 L 27.566406 21.167969 L 28.199219 21.449219 L 28.535156 22.484375 C 28.558594 22.554688 28.613281 22.613281 28.679688 22.640625 C 28.710938 22.65625 28.742188 22.664062 28.777344 22.664062 L 29.953125 22.691406 C 30.066406 22.695312 30.167969 22.628906 30.207031 22.527344 L 30.597656 21.511719 L 31.246094 21.261719 L 32.214844 21.753906 C 32.3125 21.804688 32.433594 21.785156 32.515625 21.707031 L 33.367188 20.898438 C 33.445312 20.824219 33.46875 20.703125 33.425781 20.601562 L 32.984375 19.609375 L 33.265625 18.972656 L 34.300781 18.636719 C 34.40625 18.601562 34.476562 18.503906 34.480469 18.394531 L 34.511719 17.21875 C 34.511719 17.105469 34.445312 17.007812 34.34375 16.964844 Z M 31.1875 17.984375 C 31.019531 18.917969 30.125 19.539062 29.1875 19.371094 C 28.253906 19.203125 27.632812 18.304688 27.800781 17.371094 C 27.972656 16.433594 28.867188 15.8125 29.800781 15.984375 C 30.738281 16.152344 31.359375 17.050781 31.1875 17.984375 Z M 31.1875 17.984375 " fill-opacity="1" fill-rule="nonzero"/></g><path fill="#000080" d="M 25.238281 15.78125 C 25.371094 15.660156 25.414062 15.464844 25.347656 15.296875 L 24.609375 13.515625 C 24.539062 13.347656 24.371094 13.242188 24.191406 13.25 L 22.40625 13.34375 L 21.605469 12.539062 L 21.695312 10.753906 C 21.703125 10.574219 21.597656 10.40625 21.429688 10.335938 L 19.648438 9.597656 C 19.480469 9.527344 19.289062 9.574219 19.167969 9.707031 L 17.96875 11.035156 L 16.832031 11.035156 L 15.636719 9.707031 C 15.515625 9.574219 15.320312 9.53125 15.152344 9.597656 L 13.371094 10.335938 C 13.203125 10.40625 13.097656 10.574219 13.105469 10.753906 L 13.199219 12.539062 L 12.394531 13.34375 L 10.613281 13.25 C 10.429688 13.242188 10.261719 13.347656 10.191406 13.515625 L 9.457031 15.296875 C 9.386719 15.464844 9.429688 15.660156 9.566406 15.78125 L 10.890625 16.976562 L 10.890625 18.113281 L 9.566406 19.3125 C 9.429688 19.433594 9.386719 19.625 9.457031 19.792969 L 10.191406 21.574219 C 10.261719 21.742188 10.429688 21.847656 10.613281 21.839844 L 12.394531 21.75 L 13.199219 22.550781 L 13.105469 24.335938 C 13.097656 24.515625 13.203125 24.683594 13.371094 24.753906 L 15.152344 25.492188 C 15.320312 25.5625 15.515625 25.515625 15.636719 25.382812 L 16.832031 24.058594 L 17.96875 24.058594 L 19.167969 25.382812 C 19.25 25.472656 19.367188 25.523438 19.484375 25.523438 C 19.539062 25.523438 19.59375 25.511719 19.648438 25.492188 L 21.429688 24.753906 C 21.597656 24.683594 21.703125 24.515625 21.695312 24.335938 L 21.605469 22.550781 L 22.40625 21.75 L 24.191406 21.839844 C 24.371094 21.847656 24.539062 21.742188 24.609375 21.574219 L 25.347656 19.792969 C 25.417969 19.625 25.371094 19.433594 25.238281 19.3125 L 23.914062 18.113281 L 23.914062 16.976562 Z M 17.398438 22.179688 C 14.839844 22.179688 12.765625 20.105469 12.765625 17.546875 C 12.765625 14.984375 14.839844 12.910156 17.398438 12.910156 C 19.960938 12.910156 22.035156 14.984375 22.035156 17.546875 C 22.035156 20.105469 19.960938 22.179688 17.398438 22.179688 Z M 17.398438 22.179688 " fill-opacity="1" fill-rule="nonzero"/><path fill="#000080" d="M 18.203125 17.015625 C 18.644531 16.738281 18.9375 16.25 18.9375 15.691406 C 18.9375 14.828125 18.238281 14.132812 17.378906 14.132812 C 16.515625 14.132812 15.820312 14.828125 15.820312 15.691406 C 15.820312 16.25 16.113281 16.738281 16.550781 17.015625 C 15.398438 17.367188 14.558594 18.441406 14.558594 19.710938 C 14.558594 19.890625 14.6875 20.042969 14.859375 20.082031 C 15.113281 20.335938 16.144531 20.527344 17.382812 20.527344 C 18.621094 20.527344 19.652344 20.335938 19.902344 20.078125 C 20.070312 20.039062 20.199219 19.890625 20.199219 19.710938 C 20.195312 18.441406 19.359375 17.367188 18.203125 17.015625 Z M 18.203125 17.015625 " fill-opacity="1" fill-rule="nonzero"/><path fill="#000080" d="M 25.976562 11.707031 L 25.976562 9.671875 C 25.976562 9.480469 25.824219 9.328125 25.632812 9.328125 L 24.484375 9.328125 C 24.292969 9.328125 24.136719 9.484375 24.136719 9.671875 L 24.136719 11.707031 C 24.136719 11.898438 24.292969 12.050781 24.484375 12.050781 L 25.632812 12.050781 C 25.824219 12.050781 25.976562 11.898438 25.976562 11.707031 Z M 25.976562 11.707031 " fill-opacity="1" fill-rule="nonzero"/><path fill="#000080" d="M 27.089844 8.253906 C 26.898438 8.253906 26.746094 8.410156 26.746094 8.597656 L 26.746094 11.707031 C 26.746094 11.898438 26.898438 12.050781 27.089844 12.050781 L 28.238281 12.050781 C 28.429688 12.050781 28.585938 11.898438 28.585938 11.707031 L 28.585938 8.597656 C 28.585938 8.40625 28.429688 8.253906 28.238281 8.253906 Z M 27.089844 8.253906 " fill-opacity="1" fill-rule="nonzero"/><path fill="#000080" d="M 29.351562 6.605469 L 29.351562 11.707031 C 29.351562 11.898438 29.507812 12.050781 29.695312 12.050781 L 30.847656 12.050781 C 31.039062 12.050781 31.191406 11.898438 31.191406 11.707031 L 31.191406 6.605469 C 31.191406 6.414062 31.039062 6.261719 30.847656 6.261719 L 29.699219 6.261719 C 29.507812 6.261719 29.351562 6.414062 29.351562 6.605469 Z M 29.351562 6.605469 " fill-opacity="1" fill-rule="nonzero"/><g clip-path="url(#ead62c6b73)"><path fill="#000080" d="M 24.976562 7.710938 C 25.011719 7.714844 25.046875 7.710938 25.082031 7.710938 L 25.191406 7.710938 C 25.230469 7.710938 25.265625 7.710938 25.300781 7.707031 C 25.335938 7.707031 25.375 7.707031 25.410156 7.703125 L 25.519531 7.695312 C 25.554688 7.691406 25.589844 7.6875 25.625 7.683594 L 25.734375 7.671875 C 25.753906 7.667969 25.769531 7.667969 25.789062 7.664062 L 25.84375 7.65625 C 26.132812 7.613281 26.421875 7.542969 26.703125 7.453125 C 26.988281 7.359375 27.261719 7.238281 27.527344 7.097656 C 28.0625 6.8125 28.550781 6.429688 28.972656 5.964844 C 29.324219 5.578125 29.621094 5.132812 29.851562 4.648438 L 30.292969 4.773438 C 30.402344 4.808594 30.503906 4.695312 30.457031 4.589844 L 29.8125 3.039062 C 29.777344 2.957031 29.675781 2.929688 29.605469 2.980469 L 28.230469 3.941406 C 28.136719 4.007812 28.160156 4.15625 28.273438 4.191406 L 28.667969 4.304688 C 28.5625 4.675781 28.40625 5.039062 28.203125 5.378906 C 27.933594 5.820312 27.589844 6.222656 27.175781 6.554688 C 26.96875 6.722656 26.746094 6.875 26.511719 7.007812 C 26.273438 7.136719 26.027344 7.25 25.765625 7.339844 L 25.71875 7.359375 C 25.703125 7.363281 25.6875 7.371094 25.667969 7.375 L 25.570312 7.40625 C 25.539062 7.417969 25.503906 7.425781 25.46875 7.433594 L 25.371094 7.464844 C 25.335938 7.472656 25.304688 7.480469 25.269531 7.488281 C 25.238281 7.492188 25.203125 7.503906 25.167969 7.511719 L 25.066406 7.53125 C 25.03125 7.535156 24.996094 7.542969 24.960938 7.550781 L 24.121094 7.695312 Z M 24.976562 7.710938 " fill-opacity="1" fill-rule="nonzero"/></g><g clip-path="url(#f860cbd8af)"><path fill="#000080" d="M 27.695312 24.902344 C 27.488281 24.734375 27.183594 24.761719 27.015625 24.96875 C 24.628906 27.851562 21.117188 29.503906 17.378906 29.503906 C 14.8125 29.503906 12.347656 28.734375 10.25 27.277344 C 10.207031 27.246094 10.160156 27.222656 10.113281 27.210938 L 11.050781 26.273438 C 11.15625 26.167969 11.195312 26.019531 11.160156 25.875 C 11.121094 25.734375 11.011719 25.621094 10.867188 25.582031 L 7.195312 24.566406 C 7.054688 24.527344 6.898438 24.566406 6.792969 24.671875 C 6.6875 24.777344 6.648438 24.933594 6.6875 25.078125 L 7.703125 28.746094 C 7.742188 28.890625 7.855469 29 7.996094 29.039062 C 8.03125 29.046875 8.066406 29.050781 8.101562 29.050781 C 8.210938 29.050781 8.316406 29.007812 8.394531 28.929688 L 9.511719 27.8125 C 9.542969 27.914062 9.605469 28.003906 9.699219 28.070312 C 11.957031 29.640625 14.613281 30.472656 17.378906 30.472656 C 18.402344 30.472656 19.421875 30.355469 20.414062 30.128906 C 21.378906 29.90625 22.316406 29.578125 23.207031 29.148438 C 24.082031 28.726562 24.914062 28.210938 25.679688 27.609375 C 26.441406 27.011719 27.140625 26.332031 27.757812 25.585938 C 27.929688 25.378906 27.898438 25.074219 27.695312 24.902344 Z M 8.3125 27.84375 L 7.679688 25.558594 L 9.964844 26.191406 Z M 8.3125 27.84375 " fill-opacity="1" fill-rule="nonzero"/></g><g clip-path="url(#5a252a8f7d)"><path fill="#000080" d="M 5.632812 11.453125 C 5.703125 11.492188 5.78125 11.507812 5.855469 11.507812 C 6.027344 11.507812 6.195312 11.414062 6.285156 11.25 C 8.445312 7.09375 12.695312 4.511719 17.378906 4.511719 C 18.542969 4.511719 19.695312 4.671875 20.800781 4.984375 L 20.203125 6.046875 C 20.128906 6.171875 20.128906 6.332031 20.203125 6.457031 C 20.277344 6.585938 20.414062 6.664062 20.5625 6.664062 L 24.316406 6.664062 C 24.464844 6.664062 24.601562 6.585938 24.675781 6.457031 C 24.75 6.332031 24.75 6.175781 24.675781 6.046875 L 22.800781 2.730469 C 22.726562 2.601562 22.589844 2.519531 22.441406 2.519531 C 22.289062 2.519531 22.152344 2.601562 22.082031 2.730469 L 21.292969 4.121094 C 20.027344 3.738281 18.710938 3.542969 17.378906 3.542969 C 16.105469 3.542969 14.84375 3.722656 13.632812 4.070312 C 12.460938 4.410156 11.335938 4.910156 10.292969 5.554688 C 8.230469 6.835938 6.546875 8.648438 5.425781 10.800781 C 5.304688 11.039062 5.394531 11.328125 5.632812 11.453125 Z M 22.441406 3.773438 L 23.609375 5.835938 L 21.273438 5.835938 Z M 22.441406 3.773438 " fill-opacity="1" fill-rule="nonzero"/></g></svg>