<svg xmlns="http://www.w3.org/2000/svg" xmlns:xlink="http://www.w3.org/1999/xlink" width="47" zoomAndPan="magnify" viewBox="0 0 35.25 32.999998" height="44" preserveAspectRatio="xMidYMid meet" version="1.0"><defs><clipPath id="4ddd087861"><path d="M 0 0.34375 L 34.515625 0.34375 L 34.515625 32.65625 L 0 32.65625 Z M 0 0.34375 " clip-rule="nonzero"/></clipPath><clipPath id="03f43af604"><path d="M 18 11 L 34.515625 11 L 34.515625 30 L 18 30 Z M 18 11 " clip-rule="nonzero"/></clipPath><clipPath id="d0273da727"><path d="M 0 3.015625 L 29 3.015625 L 29 26 L 0 26 Z M 0 3.015625 " clip-rule="nonzero"/></clipPath></defs><g clip-path="url(#4ddd087861)"><path fill="#ffffff" d="M 0 0.34375 L 34.515625 0.34375 L 34.515625 32.65625 L 0 32.65625 Z M 0 0.34375 " fill-opacity="1" fill-rule="nonzero"/><path fill="#ffffff" d="M 0 0.34375 L 34.515625 0.34375 L 34.515625 32.65625 L 0 32.65625 Z M 0 0.34375 " fill-opacity="1" fill-rule="nonzero"/></g><g clip-path="url(#03f43af604)"><path fill="#000080" d="M 33.429688 15.566406 L 27.496094 12.175781 C 26.835938 11.796875 26.015625 11.796875 25.355469 12.175781 L 19.421875 15.566406 C 18.753906 15.949219 18.335938 16.667969 18.335938 17.4375 L 18.335938 21.28125 C 18.335938 23.875 19.730469 26.289062 21.984375 27.589844 L 26.164062 29.914062 C 26.246094 29.960938 26.335938 29.984375 26.425781 29.984375 C 26.515625 29.984375 26.605469 29.960938 26.6875 29.914062 L 30.875 27.585938 C 33.121094 26.289062 34.515625 23.875 34.515625 21.28125 L 34.515625 17.4375 C 34.515625 16.667969 34.097656 15.949219 33.429688 15.566406 Z M 33.4375 21.28125 C 33.4375 23.488281 32.25 25.546875 30.34375 26.648438 L 26.425781 28.828125 L 22.515625 26.652344 C 20.601562 25.546875 19.414062 23.488281 19.414062 21.28125 L 19.414062 17.4375 C 19.414062 17.054688 19.625 16.695312 19.957031 16.503906 L 25.890625 13.113281 C 26.222656 12.925781 26.632812 12.925781 26.960938 13.113281 L 32.894531 16.503906 C 33.230469 16.695312 33.4375 17.054688 33.4375 17.4375 Z M 33.4375 21.28125 " fill-opacity="1" fill-rule="nonzero"/></g><path fill="#000080" d="M 30.359375 17.738281 L 25.886719 22.210938 L 24.109375 20.433594 C 23.902344 20.222656 23.558594 20.222656 23.347656 20.433594 C 23.136719 20.644531 23.136719 20.984375 23.347656 21.195312 L 25.503906 23.351562 C 25.609375 23.457031 25.75 23.511719 25.886719 23.511719 C 26.023438 23.511719 26.164062 23.457031 26.269531 23.351562 L 31.121094 18.5 C 31.332031 18.289062 31.332031 17.945312 31.121094 17.738281 C 30.910156 17.527344 30.570312 17.527344 30.359375 17.738281 Z M 30.359375 17.738281 " fill-opacity="1" fill-rule="nonzero"/><g clip-path="url(#d0273da727)"><path fill="#000080" d="M 3.234375 25.398438 L 17.527344 25.398438 C 17.824219 25.398438 18.066406 25.15625 18.066406 24.859375 C 18.066406 24.5625 17.824219 24.320312 17.527344 24.320312 L 5.886719 24.320312 L 9.550781 20.65625 C 9.761719 20.445312 9.761719 20.105469 9.550781 19.894531 L 6.035156 16.378906 L 6.863281 14.519531 L 12.019531 12.972656 C 12.304688 12.886719 12.464844 12.585938 12.382812 12.300781 C 12.296875 12.015625 11.996094 11.851562 11.710938 11.9375 L 6.523438 13.496094 L 1.078125 10.773438 L 1.078125 6.253906 C 1.078125 5.0625 2.046875 4.097656 3.234375 4.097656 L 11.019531 4.097656 C 11.59375 4.097656 12.136719 4.320312 12.542969 4.726562 L 15.417969 7.601562 L 6.472656 7.601562 C 6.175781 7.601562 5.933594 7.84375 5.933594 8.140625 C 5.933594 8.4375 6.175781 8.679688 6.472656 8.679688 L 25.617188 8.679688 C 26.804688 8.679688 27.773438 9.648438 27.773438 10.835938 C 27.773438 11.136719 28.015625 11.375 28.3125 11.375 C 28.609375 11.375 28.851562 11.136719 28.851562 10.835938 C 28.851562 9.054688 27.402344 7.601562 25.617188 7.601562 L 17.835938 7.601562 C 17.257812 7.601562 16.71875 7.378906 16.308594 6.96875 L 13.304688 3.964844 C 12.695312 3.355469 11.882812 3.015625 11.019531 3.015625 L 3.234375 3.015625 C 1.453125 3.015625 0 4.46875 0 6.253906 L 0 22.164062 C 0 23.945312 1.453125 25.398438 3.234375 25.398438 Z M 5.769531 14.324219 L 3.820312 18.707031 C 3.699219 18.980469 3.824219 19.296875 4.09375 19.417969 C 4.167969 19.453125 4.242188 19.464844 4.3125 19.464844 C 4.519531 19.464844 4.71875 19.347656 4.808594 19.144531 L 5.566406 17.4375 L 8.40625 20.273438 L 4.359375 24.320312 L 3.234375 24.320312 C 2.046875 24.320312 1.078125 23.351562 1.078125 22.164062 L 1.078125 11.980469 Z M 5.769531 14.324219 " fill-opacity="1" fill-rule="nonzero"/></g></svg>