<svg xmlns="http://www.w3.org/2000/svg" xmlns:xlink="http://www.w3.org/1999/xlink" width="47" zoomAndPan="magnify" viewBox="0 0 35.25 32.999998" height="44" preserveAspectRatio="xMidYMid meet" version="1.0"><defs><clipPath id="1724445f1b"><path d="M 0 0.34375 L 34.515625 0.34375 L 34.515625 32.65625 L 0 32.65625 Z M 0 0.34375 " clip-rule="nonzero"/></clipPath><clipPath id="7a788eb26c"><path d="M 3 1.917969 L 34.515625 1.917969 L 34.515625 18 L 3 18 Z M 3 1.917969 " clip-rule="nonzero"/></clipPath><clipPath id="8e6745620c"><path d="M 0 15 L 32 15 L 32 31.292969 L 0 31.292969 Z M 0 15 " clip-rule="nonzero"/></clipPath></defs><g clip-path="url(#1724445f1b)"><path fill="#ffffff" d="M 0 0.34375 L 34.515625 0.34375 L 34.515625 32.65625 L 0 32.65625 Z M 0 0.34375 " fill-opacity="1" fill-rule="nonzero"/><path fill="#ffffff" d="M 0 0.34375 L 34.515625 0.34375 L 34.515625 32.65625 L 0 32.65625 Z M 0 0.34375 " fill-opacity="1" fill-rule="nonzero"/></g><path fill="#000080" d="M 17.457031 7.085938 C 17.066406 6.996094 16.667969 7.179688 16.492188 7.535156 L 11.34375 17.828125 C 11.210938 18.09375 11.226562 18.410156 11.382812 18.660156 C 11.539062 18.914062 11.816406 19.066406 12.113281 19.066406 L 16.398438 19.066406 L 16.398438 25.070312 C 16.398438 25.46875 16.671875 25.816406 17.058594 25.90625 C 17.125 25.921875 17.191406 25.929688 17.257812 25.929688 C 17.578125 25.929688 17.878906 25.75 18.023438 25.453125 L 23.171875 15.164062 C 23.304688 14.898438 23.289062 14.582031 23.132812 14.328125 C 22.976562 14.078125 22.699219 13.921875 22.402344 13.921875 L 18.117188 13.921875 L 18.117188 7.921875 C 18.117188 7.523438 17.84375 7.175781 17.457031 7.085938 " fill-opacity="1" fill-rule="nonzero"/><g clip-path="url(#7a788eb26c)"><path fill="#000080" d="M 34.15625 13.316406 C 33.824219 12.980469 33.28125 12.980469 32.945312 13.316406 L 31.707031 14.554688 C 30.753906 7.429688 24.636719 1.917969 17.257812 1.917969 C 10.445312 1.917969 4.605469 6.542969 3.0625 13.167969 C 2.953125 13.628906 3.238281 14.089844 3.699219 14.199219 C 4.160156 14.304688 4.625 14.019531 4.730469 13.558594 C 6.09375 7.714844 11.246094 3.632812 17.257812 3.632812 C 24.351562 3.632812 30.121094 9.402344 30.121094 16.496094 C 30.121094 16.84375 30.332031 17.15625 30.652344 17.289062 C 30.757812 17.332031 30.867188 17.351562 30.980469 17.351562 C 31.203125 17.351562 31.421875 17.265625 31.585938 17.101562 L 34.15625 14.527344 C 34.492188 14.195312 34.492188 13.652344 34.15625 13.316406 " fill-opacity="1" fill-rule="nonzero"/></g><g clip-path="url(#8e6745620c)"><path fill="#000080" d="M 30.816406 18.792969 C 30.351562 18.683594 29.890625 18.972656 29.785156 19.433594 C 28.421875 25.277344 23.269531 29.359375 17.257812 29.359375 C 10.164062 29.359375 4.394531 23.589844 4.394531 16.496094 C 4.394531 16.148438 4.183594 15.835938 3.863281 15.703125 C 3.542969 15.570312 3.175781 15.644531 2.929688 15.890625 L 0.359375 18.460938 C 0.0234375 18.796875 0.0234375 19.339844 0.359375 19.675781 C 0.691406 20.007812 1.234375 20.007812 1.570312 19.675781 L 2.808594 18.4375 C 3.761719 25.5625 9.878906 31.074219 17.257812 31.074219 C 24.070312 31.074219 29.90625 26.449219 31.453125 19.820312 C 31.5625 19.359375 31.277344 18.898438 30.816406 18.792969 " fill-opacity="1" fill-rule="nonzero"/></g></svg>