<svg xmlns="http://www.w3.org/2000/svg" xmlns:xlink="http://www.w3.org/1999/xlink" width="47" zoomAndPan="magnify" viewBox="0 0 35.25 32.999998" height="44" preserveAspectRatio="xMidYMid meet" version="1.0"><defs><clipPath id="dee731a6ad"><path d="M 0 0.34375 L 34.515625 0.34375 L 34.515625 32.65625 L 0 32.65625 Z M 0 0.34375 " clip-rule="nonzero"/></clipPath><clipPath id="2836db38e4"><path d="M 0 18 L 14 18 L 14 31.152344 L 0 31.152344 Z M 0 18 " clip-rule="nonzero"/></clipPath><clipPath id="9e3487b745"><path d="M 6 1.777344 L 34.515625 1.777344 L 34.515625 31 L 6 31 Z M 6 1.777344 " clip-rule="nonzero"/></clipPath></defs><g clip-path="url(#dee731a6ad)"><path fill="#ffffff" d="M 0 0.34375 L 34.515625 0.34375 L 34.515625 32.65625 L 0 32.65625 Z M 0 0.34375 " fill-opacity="1" fill-rule="nonzero"/><path fill="#ffffff" d="M 0 0.34375 L 34.515625 0.34375 L 34.515625 32.65625 L 0 32.65625 Z M 0 0.34375 " fill-opacity="1" fill-rule="nonzero"/></g><path fill="#000080" d="M 5.121094 27.410156 C 5.5625 27.640625 6.042969 27.753906 6.527344 27.753906 C 6.832031 27.753906 7.136719 27.707031 7.4375 27.613281 C 8.210938 27.367188 8.84375 26.839844 9.214844 26.117188 C 9.589844 25.398438 9.664062 24.578125 9.417969 23.804688 C 9.175781 23.03125 8.644531 22.398438 7.925781 22.023438 C 7.207031 21.648438 6.382812 21.578125 5.609375 21.820312 C 4.835938 22.066406 4.207031 22.597656 3.832031 23.316406 C 3.058594 24.800781 3.636719 26.636719 5.121094 27.410156 Z M 4.960938 23.902344 C 5.175781 23.484375 5.542969 23.175781 5.992188 23.035156 C 6.167969 22.980469 6.34375 22.953125 6.523438 22.953125 C 6.804688 22.953125 7.082031 23.019531 7.335938 23.152344 C 8.199219 23.601562 8.535156 24.667969 8.085938 25.53125 C 7.773438 26.132812 7.160156 26.476562 6.523438 26.480469 C 6.25 26.480469 5.96875 26.417969 5.710938 26.28125 C 4.847656 25.832031 4.511719 24.765625 4.960938 23.902344 Z M 4.960938 23.902344 " fill-opacity="1" fill-rule="nonzero"/><g clip-path="url(#2836db38e4)"><path fill="#000080" d="M 0.402344 25.46875 L 1.578125 26.007812 L 1.730469 26.496094 L 1.078125 27.613281 C 0.941406 27.84375 0.964844 28.136719 1.136719 28.34375 L 2.015625 29.390625 C 2.191406 29.597656 2.476562 29.671875 2.726562 29.578125 L 3.9375 29.128906 L 4.394531 29.363281 L 4.71875 30.617188 C 4.785156 30.875 5.011719 31.066406 5.28125 31.089844 L 6.640625 31.207031 C 6.660156 31.210938 6.679688 31.210938 6.699219 31.210938 C 6.945312 31.210938 7.171875 31.066406 7.277344 30.839844 L 7.816406 29.664062 L 8.304688 29.507812 L 9.417969 30.164062 C 9.652344 30.300781 9.945312 30.277344 10.148438 30.101562 L 11.199219 29.222656 C 11.40625 29.050781 11.480469 28.765625 11.386719 28.515625 L 10.933594 27.300781 L 11.171875 26.847656 L 12.421875 26.523438 C 12.683594 26.453125 12.871094 26.230469 12.894531 25.960938 L 13.015625 24.597656 C 13.039062 24.332031 12.890625 24.078125 12.644531 23.964844 L 11.46875 23.425781 L 11.316406 22.9375 L 11.972656 21.824219 C 12.105469 21.589844 12.082031 21.296875 11.910156 21.089844 L 11.03125 20.042969 C 10.855469 19.835938 10.574219 19.761719 10.320312 19.855469 L 9.109375 20.308594 L 8.652344 20.070312 L 8.328125 18.820312 C 8.261719 18.558594 8.035156 18.367188 7.769531 18.34375 L 6.40625 18.226562 C 6.136719 18.203125 5.882812 18.351562 5.769531 18.59375 L 5.234375 19.769531 L 4.746094 19.925781 L 3.628906 19.269531 C 3.398438 19.132812 3.105469 19.160156 2.898438 19.332031 L 1.851562 20.210938 C 1.644531 20.382812 1.570312 20.667969 1.664062 20.921875 L 2.113281 22.132812 L 1.878906 22.585938 L 0.625 22.914062 C 0.363281 22.980469 0.175781 23.203125 0.152344 23.472656 L 0.03125 24.835938 C 0.0078125 25.105469 0.15625 25.359375 0.402344 25.46875 Z M 1.378906 24.03125 L 2.472656 23.746094 C 2.644531 23.703125 2.792969 23.585938 2.875 23.425781 L 3.375 22.46875 C 3.457031 22.308594 3.46875 22.121094 3.40625 21.953125 L 3.011719 20.898438 L 3.371094 20.59375 L 4.34375 21.167969 C 4.5 21.257812 4.6875 21.277344 4.859375 21.222656 L 5.886719 20.898438 C 6.058594 20.847656 6.199219 20.722656 6.273438 20.558594 L 6.742188 19.53125 L 7.210938 19.574219 L 7.492188 20.664062 C 7.539062 20.839844 7.65625 20.984375 7.816406 21.070312 L 8.773438 21.566406 C 8.929688 21.648438 9.117188 21.660156 9.289062 21.597656 L 10.34375 21.207031 L 10.644531 21.566406 L 10.074219 22.539062 C 9.984375 22.691406 9.960938 22.878906 10.015625 23.050781 L 10.339844 24.078125 C 10.394531 24.25 10.519531 24.390625 10.683594 24.464844 L 11.707031 24.933594 L 11.667969 25.402344 L 10.578125 25.6875 C 10.402344 25.730469 10.253906 25.847656 10.171875 26.007812 L 9.675781 26.964844 C 9.589844 27.125 9.578125 27.3125 9.640625 27.480469 L 10.035156 28.539062 L 9.675781 28.839844 L 8.703125 28.269531 C 8.546875 28.175781 8.363281 28.15625 8.191406 28.210938 L 7.164062 28.535156 C 6.992188 28.589844 6.851562 28.710938 6.773438 28.875 L 6.304688 29.902344 L 5.839844 29.859375 L 5.554688 28.769531 C 5.507812 28.59375 5.390625 28.449219 5.230469 28.363281 L 4.277344 27.867188 C 4.117188 27.785156 3.929688 27.773438 3.761719 27.835938 L 2.703125 28.230469 L 2.402344 27.871094 L 2.972656 26.898438 C 3.0625 26.742188 3.085938 26.554688 3.03125 26.382812 L 2.707031 25.355469 C 2.652344 25.183594 2.527344 25.042969 2.363281 24.96875 L 1.339844 24.5 Z M 1.378906 24.03125 " fill-opacity="1" fill-rule="nonzero"/></g><g clip-path="url(#9e3487b745)"><path fill="#000080" d="M 6.34375 16.949219 C 6.402344 16.949219 6.460938 16.953125 6.515625 16.957031 L 7.878906 17.078125 C 8.683594 17.148438 9.359375 17.71875 9.558594 18.5 L 9.628906 18.753906 L 9.875 18.664062 C 10.089844 18.582031 10.3125 18.542969 10.539062 18.542969 C 11.105469 18.542969 11.640625 18.789062 12.003906 19.226562 L 12.882812 20.273438 C 13.402344 20.890625 13.476562 21.773438 13.066406 22.46875 L 12.933594 22.695312 L 13.175781 22.808594 C 13.910156 23.140625 14.355469 23.90625 14.285156 24.710938 L 14.164062 26.070312 C 14.09375 26.875 13.523438 27.550781 12.742188 27.753906 L 12.707031 27.761719 C 13.402344 28.214844 14.140625 28.605469 14.910156 28.929688 C 16.65625 29.660156 18.503906 30.03125 20.410156 30.027344 C 22.316406 30.023438 24.167969 29.644531 25.90625 28.90625 C 27.585938 28.191406 29.09375 27.167969 30.386719 25.871094 C 31.683594 24.570312 32.699219 23.058594 33.40625 21.375 C 34.136719 19.632812 34.507812 17.78125 34.503906 15.875 C 34.5 13.96875 34.121094 12.121094 33.382812 10.378906 C 32.667969 8.699219 31.644531 7.191406 30.34375 5.898438 C 29.046875 4.605469 27.535156 3.589844 25.851562 2.882812 C 24.109375 2.148438 22.257812 1.777344 20.351562 1.78125 C 18.445312 1.789062 16.597656 2.164062 14.855469 2.90625 C 13.175781 3.621094 11.667969 4.640625 10.375 5.941406 C 9.082031 7.242188 8.066406 8.753906 7.359375 10.4375 C 6.625 12.179688 6.253906 14.027344 6.257812 15.933594 C 6.261719 16.277344 6.273438 16.613281 6.296875 16.949219 C 6.3125 16.949219 6.328125 16.949219 6.34375 16.949219 Z M 16.011719 19.480469 C 16.011719 19.128906 16.296875 18.84375 16.648438 18.84375 C 17 18.84375 17.285156 19.125 17.285156 19.476562 L 17.285156 20.039062 C 17.289062 21.65625 18.605469 22.964844 20.21875 22.960938 L 20.574219 22.960938 C 22.1875 22.957031 23.5 21.640625 23.496094 20.027344 L 23.492188 19.5625 C 23.492188 18.980469 23.320312 18.417969 22.996094 17.9375 C 22.671875 17.453125 22.21875 17.082031 21.683594 16.863281 L 18.59375 15.589844 C 17.824219 15.273438 17.171875 14.738281 16.707031 14.046875 C 16.242188 13.355469 15.996094 12.550781 15.996094 11.714844 C 15.992188 10.59375 16.425781 9.539062 17.21875 8.742188 C 17.859375 8.101562 18.667969 7.691406 19.550781 7.554688 L 19.546875 6.046875 C 19.546875 5.695312 19.828125 5.410156 20.179688 5.410156 C 20.53125 5.410156 20.816406 5.691406 20.820312 6.042969 L 20.820312 7.515625 C 21.839844 7.578125 22.785156 8.003906 23.511719 8.730469 C 24.308594 9.523438 24.746094 10.574219 24.75 11.699219 L 24.75 12.46875 C 24.753906 12.820312 24.46875 13.105469 24.117188 13.105469 C 23.765625 13.109375 23.480469 12.824219 23.480469 12.472656 L 23.476562 11.699219 C 23.472656 10.085938 22.15625 8.777344 20.542969 8.78125 L 20.1875 8.78125 C 18.574219 8.785156 17.265625 10.097656 17.269531 11.714844 C 17.269531 12.292969 17.441406 12.855469 17.765625 13.339844 C 18.089844 13.820312 18.542969 14.191406 19.078125 14.414062 L 22.167969 15.683594 C 22.9375 16.003906 23.589844 16.535156 24.054688 17.226562 C 24.519531 17.917969 24.765625 18.726562 24.765625 19.558594 L 24.769531 20.023438 C 24.769531 21.144531 24.335938 22.203125 23.542969 22.996094 C 22.820312 23.726562 21.875 24.15625 20.859375 24.222656 L 20.859375 25.765625 C 20.863281 26.117188 20.578125 26.402344 20.226562 26.402344 C 19.875 26.402344 19.589844 26.117188 19.589844 25.765625 L 19.585938 24.1875 C 18.703125 24.058594 17.890625 23.648438 17.25 23.011719 C 16.453125 22.21875 16.015625 21.164062 16.011719 20.042969 Z M 16.011719 19.480469 " fill-opacity="1" fill-rule="nonzero"/></g></svg>