<svg xmlns="http://www.w3.org/2000/svg" xmlns:xlink="http://www.w3.org/1999/xlink" width="47" zoomAndPan="magnify" viewBox="0 0 35.25 32.999998" height="44" preserveAspectRatio="xMidYMid meet" version="1.0"><defs><clipPath id="94a9ff6885"><path d="M 0 0.34375 L 34.515625 0.34375 L 34.515625 32.65625 L 0 32.65625 Z M 0 0.34375 " clip-rule="nonzero"/></clipPath><clipPath id="e08469dd17"><path d="M 0.9375 0.34375 L 33.25 0.34375 L 33.25 32.65625 L 0.9375 32.65625 Z M 0.9375 0.34375 " clip-rule="nonzero"/></clipPath></defs><g clip-path="url(#94a9ff6885)"><path fill="#ffffff" d="M 0 0.34375 L 34.515625 0.34375 L 34.515625 32.65625 L 0 32.65625 Z M 0 0.34375 " fill-opacity="1" fill-rule="nonzero"/><path fill="#ffffff" d="M 0 0.34375 L 34.515625 0.34375 L 34.515625 32.65625 L 0 32.65625 Z M 0 0.34375 " fill-opacity="1" fill-rule="nonzero"/></g><g clip-path="url(#e08469dd17)"><path fill="#000080" d="M 25.722656 24.605469 C 25.4375 24.605469 25.210938 24.835938 25.210938 25.117188 L 25.210938 30.851562 C 25.210938 31.28125 24.859375 31.632812 24.429688 31.632812 L 2.742188 31.632812 C 2.3125 31.632812 1.960938 31.28125 1.960938 30.851562 L 1.960938 4.9375 C 1.960938 4.511719 2.3125 4.160156 2.742188 4.160156 L 8.390625 4.160156 L 8.625 5.238281 L 3.554688 5.238281 C 3.269531 5.238281 3.042969 5.46875 3.042969 5.75 L 3.042969 30.039062 C 3.042969 30.324219 3.269531 30.550781 3.554688 30.550781 L 20.527344 30.550781 C 20.664062 30.550781 20.792969 30.5 20.890625 30.402344 L 23.980469 27.3125 C 24.074219 27.21875 24.128906 27.085938 24.128906 26.953125 L 24.128906 24.859375 C 24.128906 24.578125 23.898438 24.347656 23.617188 24.347656 C 23.335938 24.347656 23.105469 24.578125 23.105469 24.859375 L 23.105469 26.441406 L 20.527344 26.441406 C 20.246094 26.441406 20.015625 26.667969 20.015625 26.953125 L 20.015625 29.527344 L 4.066406 29.527344 L 4.066406 6.265625 L 8.859375 6.265625 C 9.042969 6.757812 9.507812 7.089844 10.050781 7.089844 L 17.121094 7.089844 C 17.664062 7.089844 18.128906 6.757812 18.3125 6.265625 L 23.105469 6.265625 L 23.105469 8.140625 C 23.105469 8.421875 23.335938 8.652344 23.617188 8.652344 C 23.898438 8.652344 24.128906 8.421875 24.128906 8.140625 L 24.128906 5.75 C 24.128906 5.46875 23.898438 5.238281 23.617188 5.238281 L 18.546875 5.238281 L 18.78125 4.160156 L 24.429688 4.160156 C 24.859375 4.160156 25.210938 4.511719 25.210938 4.9375 L 25.210938 7.882812 C 25.210938 8.164062 25.4375 8.394531 25.722656 8.394531 C 26.003906 8.394531 26.234375 8.164062 26.234375 7.882812 L 26.234375 4.9375 C 26.234375 3.945312 25.425781 3.136719 24.429688 3.136719 L 15.804688 3.136719 L 16.523438 2.125 C 16.765625 1.777344 16.796875 1.328125 16.605469 0.953125 C 16.410156 0.578125 16.027344 0.34375 15.601562 0.34375 L 11.570312 0.34375 C 11.148438 0.34375 10.761719 0.578125 10.566406 0.953125 C 10.375 1.328125 10.40625 1.777344 10.648438 2.125 L 11.367188 3.136719 L 2.742188 3.136719 C 1.746094 3.136719 0.9375 3.945312 0.9375 4.9375 L 0.9375 30.851562 C 0.9375 31.847656 1.746094 32.65625 2.742188 32.65625 L 24.429688 32.65625 C 25.425781 32.65625 26.234375 31.847656 26.234375 30.851562 L 26.234375 25.117188 C 26.234375 24.835938 26.003906 24.605469 25.722656 24.605469 Z M 22.382812 27.464844 L 21.039062 28.804688 L 21.039062 27.464844 Z M 9.648438 4.160156 L 12.355469 4.160156 C 12.546875 4.160156 12.722656 4.054688 12.808594 3.882812 C 12.898438 3.714844 12.882812 3.507812 12.773438 3.351562 L 11.484375 1.53125 C 11.460938 1.496094 11.457031 1.460938 11.476562 1.425781 C 11.496094 1.386719 11.527344 1.367188 11.570312 1.367188 L 15.601562 1.367188 C 15.644531 1.367188 15.675781 1.386719 15.695312 1.425781 C 15.714844 1.460938 15.710938 1.496094 15.6875 1.53125 L 14.398438 3.351562 C 14.289062 3.507812 14.273438 3.714844 14.363281 3.882812 C 14.449219 4.054688 14.625 4.160156 14.816406 4.160156 L 17.734375 4.160156 L 17.410156 5.648438 L 17.363281 5.871094 C 17.335938 5.992188 17.242188 6.066406 17.121094 6.066406 L 10.050781 6.066406 C 9.929688 6.066406 9.835938 5.992188 9.808594 5.871094 L 9.761719 5.652344 C 9.761719 5.648438 9.761719 5.648438 9.761719 5.644531 L 9.4375 4.160156 Z M 16.523438 26.648438 C 16.808594 26.648438 17.035156 26.878906 17.035156 27.160156 C 17.035156 27.441406 16.808594 27.671875 16.523438 27.671875 L 12.589844 27.671875 C 12.308594 27.671875 12.078125 27.441406 12.078125 27.160156 C 12.078125 26.878906 12.308594 26.648438 12.589844 26.648438 Z M 20.457031 25.460938 L 12.589844 25.460938 C 12.308594 25.460938 12.078125 25.230469 12.078125 24.949219 C 12.078125 24.664062 12.308594 24.4375 12.589844 24.4375 L 20.457031 24.4375 C 20.742188 24.4375 20.96875 24.664062 20.96875 24.949219 C 20.96875 25.230469 20.742188 25.460938 20.457031 25.460938 Z M 12.078125 19.902344 C 12.078125 19.621094 12.308594 19.390625 12.589844 19.390625 L 17.800781 19.390625 C 18.085938 19.390625 18.3125 19.621094 18.3125 19.902344 C 18.3125 20.1875 18.085938 20.414062 17.800781 20.414062 L 12.589844 20.414062 C 12.308594 20.414062 12.078125 20.1875 12.078125 19.902344 Z M 12.078125 22.117188 C 12.078125 21.832031 12.308594 21.605469 12.589844 21.605469 L 17.828125 21.605469 C 18.109375 21.605469 18.339844 21.832031 18.339844 22.117188 C 18.339844 22.398438 18.109375 22.628906 17.828125 22.628906 L 12.589844 22.628906 C 12.308594 22.628906 12.078125 22.398438 12.078125 22.117188 Z M 12.078125 14.859375 C 12.078125 14.578125 12.308594 14.347656 12.589844 14.347656 L 17.257812 14.347656 C 17.542969 14.347656 17.769531 14.578125 17.769531 14.859375 C 17.769531 15.140625 17.542969 15.371094 17.257812 15.371094 L 12.589844 15.371094 C 12.308594 15.371094 12.078125 15.140625 12.078125 14.859375 Z M 12.078125 17.070312 C 12.078125 16.789062 12.308594 16.558594 12.589844 16.558594 L 17.121094 16.558594 C 17.402344 16.558594 17.632812 16.789062 17.632812 17.070312 C 17.632812 17.355469 17.402344 17.582031 17.121094 17.582031 L 12.589844 17.582031 C 12.308594 17.582031 12.078125 17.355469 12.078125 17.070312 Z M 12.078125 12.027344 C 12.078125 11.742188 12.308594 11.515625 12.589844 11.515625 L 17.828125 11.515625 C 18.109375 11.515625 18.339844 11.742188 18.339844 12.027344 C 18.339844 12.308594 18.109375 12.539062 17.828125 12.539062 L 12.589844 12.539062 C 12.308594 12.539062 12.078125 12.308594 12.078125 12.027344 Z M 12.078125 9.816406 C 12.078125 9.53125 12.308594 9.300781 12.589844 9.300781 L 20.457031 9.300781 C 20.742188 9.300781 20.96875 9.53125 20.96875 9.816406 C 20.96875 10.097656 20.742188 10.328125 20.457031 10.328125 L 12.589844 10.328125 C 12.308594 10.328125 12.078125 10.097656 12.078125 9.816406 Z M 10.335938 20.3125 L 8.246094 22.425781 C 8.144531 22.527344 8.011719 22.578125 7.878906 22.578125 C 7.75 22.578125 7.621094 22.527344 7.523438 22.433594 L 6.355469 21.292969 C 6.152344 21.097656 6.148438 20.773438 6.347656 20.570312 C 6.542969 20.367188 6.867188 20.363281 7.070312 20.5625 L 7.875 21.34375 L 9.609375 19.59375 C 9.808594 19.394531 10.132812 19.390625 10.332031 19.589844 C 10.535156 19.789062 10.535156 20.113281 10.335938 20.3125 Z M 10.335938 15.269531 L 8.246094 17.382812 C 8.144531 17.480469 8.011719 17.53125 7.878906 17.53125 C 7.75 17.53125 7.621094 17.484375 7.523438 17.386719 L 6.355469 16.25 C 6.152344 16.054688 6.148438 15.730469 6.347656 15.527344 C 6.542969 15.324219 6.867188 15.320312 7.070312 15.515625 L 7.875 16.300781 L 9.609375 14.550781 C 9.808594 14.347656 10.132812 14.347656 10.332031 14.546875 C 10.535156 14.746094 10.535156 15.070312 10.335938 15.269531 Z M 10.335938 10.226562 L 8.246094 12.335938 C 8.144531 12.4375 8.011719 12.488281 7.878906 12.488281 C 7.75 12.488281 7.621094 12.441406 7.523438 12.34375 L 6.355469 11.207031 C 6.152344 11.007812 6.148438 10.683594 6.347656 10.480469 C 6.542969 10.277344 6.867188 10.273438 7.070312 10.472656 L 7.875 11.253906 L 9.609375 9.503906 C 9.808594 9.304688 10.132812 9.300781 10.332031 9.5 C 10.535156 9.699219 10.535156 10.023438 10.335938 10.226562 Z M 10.332031 24.636719 C 10.535156 24.835938 10.535156 25.160156 10.335938 25.359375 L 8.246094 27.46875 C 8.144531 27.570312 8.011719 27.621094 7.878906 27.621094 C 7.75 27.621094 7.621094 27.574219 7.523438 27.476562 L 6.355469 26.339844 C 6.152344 26.140625 6.148438 25.816406 6.347656 25.617188 C 6.542969 25.414062 6.867188 25.410156 7.070312 25.605469 L 7.875 26.390625 L 9.609375 24.636719 C 9.808594 24.4375 10.132812 24.4375 10.332031 24.636719 Z M 29.429688 22.855469 C 29.554688 23.109375 29.449219 23.414062 29.199219 23.539062 C 28.109375 24.078125 26.941406 24.351562 25.722656 24.351562 C 23.960938 24.351562 22.277344 23.769531 20.90625 22.703125 L 20.921875 22.90625 C 20.945312 23.1875 20.734375 23.4375 20.453125 23.457031 C 20.441406 23.460938 20.425781 23.460938 20.414062 23.460938 C 20.148438 23.460938 19.925781 23.257812 19.902344 22.988281 L 19.78125 21.492188 C 19.769531 21.34375 19.824219 21.195312 19.929688 21.089844 C 20.035156 20.984375 20.183594 20.929688 20.332031 20.941406 L 21.832031 21.0625 C 22.113281 21.082031 22.324219 21.328125 22.300781 21.613281 C 22.277344 21.878906 22.054688 22.082031 21.789062 22.082031 C 22.933594 22.890625 24.296875 23.328125 25.722656 23.328125 C 26.78125 23.328125 27.800781 23.089844 28.742188 22.621094 C 28.996094 22.496094 29.304688 22.601562 29.429688 22.855469 Z M 30.519531 10.09375 C 30.496094 9.8125 30.707031 9.5625 30.988281 9.542969 C 31.269531 9.519531 31.515625 9.730469 31.539062 10.011719 L 31.660156 11.507812 C 31.671875 11.65625 31.617188 11.804688 31.511719 11.910156 C 31.414062 12.007812 31.285156 12.0625 31.148438 12.0625 C 31.136719 12.0625 31.121094 12.0625 31.109375 12.058594 L 29.609375 11.9375 C 29.328125 11.917969 29.117188 11.671875 29.140625 11.386719 C 29.164062 11.121094 29.386719 10.917969 29.652344 10.917969 C 28.507812 10.109375 27.144531 9.671875 25.722656 9.671875 C 24.660156 9.671875 23.644531 9.910156 22.699219 10.378906 C 22.445312 10.503906 22.136719 10.398438 22.011719 10.144531 C 21.886719 9.890625 21.992188 9.585938 22.246094 9.460938 C 23.332031 8.921875 24.5 8.648438 25.722656 8.648438 C 27.480469 8.648438 29.164062 9.230469 30.535156 10.296875 Z M 32.679688 21.765625 C 32.703125 22.046875 32.492188 22.296875 32.210938 22.316406 L 30.710938 22.4375 C 30.699219 22.4375 30.683594 22.441406 30.671875 22.441406 C 30.535156 22.441406 30.40625 22.386719 30.308594 22.289062 C 30.203125 22.183594 30.148438 22.035156 30.160156 21.886719 L 30.28125 20.390625 C 30.304688 20.105469 30.550781 19.898438 30.832031 19.917969 C 31.101562 19.941406 31.304688 20.167969 31.304688 20.429688 C 32.109375 19.289062 32.546875 17.925781 32.546875 16.5 C 32.546875 15.4375 32.3125 14.421875 31.84375 13.476562 C 31.71875 13.222656 31.820312 12.917969 32.074219 12.792969 C 32.328125 12.667969 32.636719 12.769531 32.761719 13.023438 C 33.296875 14.109375 33.570312 15.28125 33.570312 16.5 C 33.570312 18.261719 32.992188 19.941406 31.921875 21.3125 L 32.128906 21.296875 C 32.410156 21.273438 32.65625 21.484375 32.679688 21.765625 Z M 20.140625 12.570312 C 19.332031 13.710938 18.894531 15.074219 18.894531 16.5 C 18.894531 17.5625 19.132812 18.578125 19.597656 19.523438 C 19.722656 19.777344 19.621094 20.082031 19.367188 20.207031 C 19.292969 20.246094 19.214844 20.261719 19.140625 20.261719 C 18.953125 20.261719 18.769531 20.15625 18.679688 19.976562 C 18.144531 18.890625 17.871094 17.71875 17.871094 16.5 C 17.871094 14.738281 18.449219 13.058594 19.519531 11.6875 L 19.3125 11.703125 C 19.03125 11.726562 18.785156 11.515625 18.761719 11.234375 C 18.738281 10.953125 18.949219 10.703125 19.230469 10.683594 L 20.730469 10.5625 C 20.878906 10.550781 21.027344 10.605469 21.132812 10.710938 C 21.238281 10.816406 21.292969 10.964844 21.28125 11.113281 L 21.160156 12.609375 C 21.140625 12.878906 20.914062 13.082031 20.652344 13.082031 C 20.636719 13.082031 20.625 13.082031 20.609375 13.078125 C 20.339844 13.058594 20.136719 12.832031 20.140625 12.570312 Z M 30.8125 17.863281 C 31.097656 17.863281 31.324219 17.632812 31.324219 17.351562 L 31.324219 15.648438 C 31.324219 15.367188 31.097656 15.136719 30.8125 15.136719 L 30.363281 15.136719 C 30.265625 14.804688 30.132812 14.484375 29.964844 14.179688 L 30.285156 13.863281 C 30.382812 13.765625 30.433594 13.636719 30.433594 13.5 C 30.433594 13.363281 30.382812 13.234375 30.285156 13.136719 L 29.082031 11.933594 C 28.988281 11.839844 28.855469 11.785156 28.722656 11.785156 C 28.585938 11.785156 28.457031 11.839844 28.359375 11.933594 L 28.039062 12.253906 C 27.734375 12.089844 27.414062 11.957031 27.082031 11.859375 L 27.082031 11.40625 C 27.082031 11.125 26.851562 10.894531 26.570312 10.894531 L 24.871094 10.894531 C 24.589844 10.894531 24.359375 11.125 24.359375 11.40625 L 24.359375 11.859375 C 24.027344 11.957031 23.707031 12.089844 23.402344 12.253906 L 23.082031 11.933594 C 22.882812 11.734375 22.558594 11.734375 22.359375 11.933594 L 21.15625 13.136719 C 21.058594 13.234375 21.007812 13.363281 21.007812 13.5 C 21.007812 13.636719 21.058594 13.765625 21.15625 13.863281 L 21.476562 14.179688 C 21.308594 14.484375 21.175781 14.804688 21.078125 15.136719 L 20.628906 15.136719 C 20.34375 15.136719 20.117188 15.367188 20.117188 15.648438 L 20.117188 17.351562 C 20.117188 17.632812 20.34375 17.863281 20.628906 17.863281 L 21.078125 17.863281 C 21.175781 18.195312 21.308594 18.515625 21.476562 18.820312 L 21.15625 19.136719 C 21.058594 19.234375 21.007812 19.363281 21.007812 19.5 C 21.007812 19.636719 21.058594 19.765625 21.15625 19.863281 L 22.359375 21.0625 C 22.453125 21.160156 22.585938 21.214844 22.71875 21.214844 C 22.855469 21.214844 22.988281 21.160156 23.082031 21.0625 L 23.402344 20.746094 C 23.707031 20.910156 24.027344 21.042969 24.359375 21.140625 L 24.359375 21.59375 C 24.359375 21.875 24.589844 22.105469 24.871094 22.105469 L 26.570312 22.105469 C 26.855469 22.105469 27.082031 21.875 27.082031 21.59375 L 27.082031 21.140625 C 27.414062 21.042969 27.734375 20.910156 28.039062 20.746094 L 28.359375 21.0625 C 28.558594 21.265625 28.882812 21.265625 29.082031 21.0625 L 30.285156 19.863281 C 30.382812 19.765625 30.433594 19.636719 30.433594 19.5 C 30.433594 19.363281 30.382812 19.234375 30.285156 19.136719 L 29.964844 18.820312 C 30.132812 18.515625 30.265625 18.195312 30.363281 17.863281 Z M 30.300781 16.839844 L 29.960938 16.839844 C 29.71875 16.839844 29.507812 17.011719 29.460938 17.25 C 29.363281 17.738281 29.171875 18.195312 28.894531 18.613281 C 28.757812 18.816406 28.785156 19.085938 28.957031 19.257812 L 29.199219 19.5 L 28.722656 19.980469 L 28.480469 19.738281 C 28.308594 19.566406 28.035156 19.539062 27.832031 19.671875 C 27.417969 19.949219 26.960938 20.140625 26.46875 20.238281 C 26.230469 20.285156 26.058594 20.496094 26.058594 20.742188 L 26.058594 21.082031 L 25.382812 21.082031 L 25.382812 20.742188 C 25.382812 20.496094 25.210938 20.285156 24.972656 20.238281 C 24.480469 20.140625 24.023438 19.949219 23.609375 19.671875 C 23.40625 19.539062 23.132812 19.566406 22.960938 19.738281 L 22.71875 19.980469 L 22.242188 19.5 L 22.484375 19.257812 C 22.65625 19.085938 22.683594 18.816406 22.546875 18.613281 C 22.269531 18.199219 22.078125 17.738281 21.980469 17.25 C 21.933594 17.011719 21.722656 16.839844 21.480469 16.839844 L 21.140625 16.839844 L 21.140625 16.160156 L 21.480469 16.160156 C 21.722656 16.160156 21.933594 15.988281 21.980469 15.75 C 22.078125 15.261719 22.269531 14.804688 22.546875 14.386719 C 22.683594 14.183594 22.65625 13.914062 22.484375 13.742188 L 22.242188 13.5 L 22.71875 13.019531 L 22.960938 13.261719 C 23.132812 13.433594 23.40625 13.460938 23.609375 13.328125 C 24.023438 13.050781 24.480469 12.859375 24.972656 12.761719 C 25.210938 12.714844 25.382812 12.503906 25.382812 12.257812 L 25.382812 11.917969 L 26.058594 11.917969 L 26.058594 12.257812 C 26.058594 12.503906 26.230469 12.714844 26.472656 12.761719 C 26.960938 12.859375 27.417969 13.050781 27.832031 13.328125 C 28.035156 13.460938 28.308594 13.4375 28.480469 13.261719 L 28.722656 13.019531 L 29.199219 13.5 L 28.957031 13.742188 C 28.785156 13.914062 28.757812 14.183594 28.894531 14.386719 C 29.171875 14.800781 29.363281 15.261719 29.460938 15.75 C 29.507812 15.988281 29.71875 16.160156 29.960938 16.160156 L 30.300781 16.160156 Z M 25.722656 13.347656 C 23.984375 13.347656 22.570312 14.761719 22.570312 16.5 C 22.570312 18.238281 23.984375 19.652344 25.722656 19.652344 C 27.457031 19.652344 28.871094 18.238281 28.871094 16.5 C 28.871094 14.761719 27.457031 13.347656 25.722656 13.347656 Z M 25.722656 18.628906 C 24.546875 18.628906 23.59375 17.671875 23.59375 16.5 C 23.59375 15.328125 24.546875 14.371094 25.722656 14.371094 C 26.894531 14.371094 27.847656 15.328125 27.847656 16.5 C 27.847656 17.671875 26.894531 18.628906 25.722656 18.628906 Z M 27.109375 15.574219 C 27.3125 15.773438 27.3125 16.097656 27.113281 16.300781 L 25.792969 17.632812 C 25.691406 17.734375 25.558594 17.785156 25.429688 17.785156 C 25.300781 17.785156 25.171875 17.738281 25.070312 17.640625 L 24.332031 16.921875 C 24.132812 16.722656 24.128906 16.398438 24.324219 16.195312 C 24.523438 15.996094 24.847656 15.992188 25.046875 16.1875 L 25.421875 16.550781 L 26.386719 15.578125 C 26.585938 15.378906 26.910156 15.375 27.109375 15.574219 Z M 27.109375 15.574219 " fill-opacity="1" fill-rule="nonzero"/></g></svg>