<svg xmlns="http://www.w3.org/2000/svg" xmlns:xlink="http://www.w3.org/1999/xlink" width="47" zoomAndPan="magnify" viewBox="0 0 35.25 32.999998" height="44" preserveAspectRatio="xMidYMid meet" version="1.0"><defs><clipPath id="dbb07bc353"><path d="M 0 0.34375 L 34.515625 0.34375 L 34.515625 32.65625 L 0 32.65625 Z M 0 0.34375 " clip-rule="nonzero"/></clipPath><clipPath id="2c04a0f457"><path d="M 1.101562 15 L 21 15 L 21 32.65625 L 1.101562 32.65625 Z M 1.101562 15 " clip-rule="nonzero"/></clipPath><clipPath id="ce624cc95f"><path d="M 1.101562 0.34375 L 33.414062 0.34375 L 33.414062 32.65625 L 1.101562 32.65625 Z M 1.101562 0.34375 " clip-rule="nonzero"/></clipPath></defs><g clip-path="url(#dbb07bc353)"><path fill="#ffffff" d="M 0 0.34375 L 34.515625 0.34375 L 34.515625 32.65625 L 0 32.65625 Z M 0 0.34375 " fill-opacity="1" fill-rule="nonzero"/><path fill="#ffffff" d="M 0 0.34375 L 34.515625 0.34375 L 34.515625 32.65625 L 0 32.65625 Z M 0 0.34375 " fill-opacity="1" fill-rule="nonzero"/></g><g clip-path="url(#2c04a0f457)"><path fill="#000080" d="M 8.398438 15.980469 L 7.355469 15.980469 C 6.492188 15.980469 5.792969 16.679688 5.792969 17.542969 L 5.792969 21.191406 L 4.230469 21.191406 C 3.367188 21.191406 2.664062 21.890625 2.664062 22.753906 L 2.664062 31.613281 L 1.621094 31.613281 L 1.621094 32.65625 L 20.386719 32.65625 L 20.386719 31.613281 L 19.34375 31.613281 L 19.34375 24.839844 C 19.34375 23.976562 18.640625 23.273438 17.777344 23.273438 L 16.214844 23.273438 L 16.214844 22.234375 C 16.214844 21.371094 15.515625 20.667969 14.652344 20.667969 L 13.089844 20.667969 L 13.089844 19.628906 C 13.089844 18.765625 12.386719 18.0625 11.523438 18.0625 L 9.960938 18.0625 L 9.960938 17.542969 C 9.960938 16.679688 9.261719 15.980469 8.398438 15.980469 Z M 7.355469 17.019531 L 8.398438 17.019531 C 8.683594 17.019531 8.917969 17.253906 8.917969 17.542969 L 8.917969 31.613281 L 6.832031 31.613281 L 6.835938 17.542969 C 6.835938 17.253906 7.070312 17.019531 7.355469 17.019531 Z M 3.707031 22.753906 C 3.707031 22.46875 3.941406 22.234375 4.230469 22.234375 L 5.792969 22.234375 L 5.792969 31.613281 L 3.707031 31.613281 Z M 17.777344 24.316406 C 18.066406 24.316406 18.300781 24.550781 18.300781 24.839844 L 18.300781 31.613281 L 16.214844 31.613281 L 16.214844 24.316406 Z M 14.652344 21.710938 C 14.9375 21.710938 15.171875 21.945312 15.171875 22.234375 L 15.171875 31.613281 L 13.089844 31.613281 L 13.089844 21.710938 Z M 11.523438 19.105469 C 11.8125 19.105469 12.046875 19.339844 12.046875 19.628906 L 12.046875 31.613281 L 9.960938 31.613281 L 9.960938 19.105469 Z M 11.523438 19.105469 " fill-opacity="1" fill-rule="nonzero"/></g><g clip-path="url(#ce624cc95f)"><path fill="#000080" d="M 24.554688 0.34375 C 20.332031 0.34375 16.695312 3.332031 15.871094 7.457031 C 15.761719 7.667969 15.695312 7.90625 15.695312 8.160156 C 15.695312 8.433594 15.769531 8.6875 15.894531 8.910156 L 13.675781 11.40625 C 13.496094 11.332031 13.296875 11.289062 13.089844 11.289062 C 12.820312 11.289062 12.574219 11.363281 12.355469 11.480469 L 8.375 7.863281 C 8.386719 7.789062 8.398438 7.714844 8.398438 7.640625 C 8.398438 6.777344 7.695312 6.078125 6.835938 6.078125 C 5.972656 6.078125 5.269531 6.777344 5.269531 7.640625 C 5.269531 7.898438 5.339844 8.140625 5.453125 8.355469 L 3.242188 10.878906 C 3.0625 10.808594 2.867188 10.765625 2.664062 10.765625 C 1.804688 10.765625 1.101562 11.46875 1.101562 12.332031 C 1.101562 13.191406 1.804688 13.894531 2.664062 13.894531 C 3.527344 13.894531 4.230469 13.191406 4.230469 12.332031 C 4.230469 12.054688 4.148438 11.796875 4.023438 11.570312 L 6.210938 9.070312 C 6.402344 9.15625 6.613281 9.203125 6.835938 9.203125 C 7.230469 9.203125 7.589844 9.050781 7.863281 8.808594 L 11.648438 12.246094 C 11.570312 12.433594 11.523438 12.636719 11.523438 12.851562 C 11.523438 13.714844 12.226562 14.414062 13.089844 14.414062 C 13.949219 14.414062 14.652344 13.714844 14.652344 12.851562 C 14.652344 12.578125 14.574219 12.324219 14.453125 12.101562 L 15.8125 10.574219 C 16.398438 14.285156 19.3125 17.25 22.992188 17.914062 L 22.992188 19.722656 C 22.386719 19.9375 21.949219 20.511719 21.949219 21.191406 L 21.949219 30.050781 C 21.949219 31.488281 23.117188 32.65625 24.554688 32.65625 C 25.992188 32.65625 27.160156 31.488281 27.160156 30.050781 L 27.160156 21.191406 C 27.160156 20.511719 26.722656 19.9375 26.117188 19.722656 L 26.117188 17.917969 C 30.257812 17.175781 33.414062 13.554688 33.414062 9.203125 C 33.414062 4.316406 29.441406 0.34375 24.554688 0.34375 Z M 18.5625 9.019531 L 21.019531 11.167969 C 20.953125 11.371094 20.90625 11.582031 20.90625 11.808594 C 20.90625 12.960938 21.839844 13.894531 22.992188 13.894531 C 24.140625 13.894531 25.074219 12.960938 25.074219 11.808594 C 25.074219 11.453125 24.976562 11.121094 24.816406 10.824219 L 27.679688 8.28125 L 27.679688 9.203125 L 28.722656 9.203125 L 28.722656 7.117188 C 28.722656 6.832031 28.488281 6.597656 28.203125 6.597656 L 26.117188 6.597656 L 26.117188 7.640625 L 26.832031 7.640625 L 24.113281 10.058594 C 23.789062 9.847656 23.402344 9.726562 22.992188 9.726562 C 22.449219 9.726562 21.957031 9.9375 21.585938 10.28125 L 18.78125 7.828125 C 18.746094 7.652344 18.675781 7.492188 18.585938 7.347656 C 19.394531 4.746094 21.8125 2.949219 24.554688 2.949219 C 28.003906 2.949219 30.808594 5.753906 30.808594 9.203125 C 30.808594 12.652344 28.003906 15.457031 24.554688 15.457031 C 21.144531 15.457031 18.367188 12.710938 18.304688 9.3125 C 18.402344 9.226562 18.492188 9.128906 18.5625 9.019531 Z M 24.03125 11.808594 C 24.03125 12.382812 23.566406 12.851562 22.992188 12.851562 C 22.414062 12.851562 21.949219 12.382812 21.949219 11.808594 C 21.949219 11.234375 22.414062 10.765625 22.992188 10.765625 C 23.566406 10.765625 24.03125 11.234375 24.03125 11.808594 Z M 17.777344 8.160156 C 17.777344 8.449219 17.546875 8.683594 17.257812 8.683594 C 16.96875 8.683594 16.738281 8.449219 16.738281 8.160156 C 16.738281 7.875 16.96875 7.640625 17.257812 7.640625 C 17.546875 7.640625 17.777344 7.875 17.777344 8.160156 Z M 2.664062 12.851562 C 2.378906 12.851562 2.144531 12.617188 2.144531 12.332031 C 2.144531 12.042969 2.378906 11.808594 2.664062 11.808594 C 2.953125 11.808594 3.1875 12.042969 3.1875 12.332031 C 3.1875 12.617188 2.953125 12.851562 2.664062 12.851562 Z M 6.835938 8.160156 C 6.546875 8.160156 6.3125 7.925781 6.3125 7.640625 C 6.3125 7.351562 6.546875 7.117188 6.835938 7.117188 C 7.121094 7.117188 7.355469 7.351562 7.355469 7.640625 C 7.355469 7.925781 7.121094 8.160156 6.835938 8.160156 Z M 13.089844 13.371094 C 12.800781 13.371094 12.566406 13.140625 12.566406 12.851562 C 12.566406 12.566406 12.800781 12.332031 13.089844 12.332031 C 13.375 12.332031 13.609375 12.566406 13.609375 12.851562 C 13.609375 13.140625 13.375 13.371094 13.089844 13.371094 Z M 26.117188 30.050781 C 26.117188 30.914062 25.417969 31.613281 24.554688 31.613281 C 23.691406 31.613281 22.992188 30.914062 22.992188 30.050781 L 22.992188 21.191406 C 22.992188 20.902344 23.226562 20.667969 23.511719 20.667969 L 25.597656 20.667969 C 25.882812 20.667969 26.117188 20.902344 26.117188 21.191406 Z M 25.074219 19.628906 L 24.03125 19.628906 L 24.03125 18.035156 C 24.207031 18.046875 24.378906 18.0625 24.554688 18.0625 C 24.730469 18.0625 24.902344 18.046875 25.074219 18.035156 Z M 24.554688 17.019531 C 20.414062 17.019531 16.984375 13.734375 16.757812 9.636719 C 16.914062 9.6875 17.082031 9.726562 17.257812 9.726562 C 17.265625 9.726562 17.273438 9.722656 17.285156 9.722656 C 17.550781 13.503906 20.707031 16.5 24.554688 16.5 C 28.578125 16.5 31.851562 13.226562 31.851562 9.203125 C 31.851562 5.179688 28.578125 1.90625 24.554688 1.90625 C 21.484375 1.90625 18.757812 3.835938 17.710938 6.671875 C 17.566406 6.628906 17.417969 6.597656 17.257812 6.597656 C 17.234375 6.597656 17.210938 6.605469 17.183594 6.605469 C 18.269531 3.523438 21.203125 1.386719 24.554688 1.386719 C 28.863281 1.386719 32.371094 4.894531 32.371094 9.203125 C 32.371094 13.515625 28.863281 17.019531 24.554688 17.019531 Z M 24.554688 17.019531 " fill-opacity="1" fill-rule="nonzero"/></g></svg>