<svg xmlns="http://www.w3.org/2000/svg" xmlns:xlink="http://www.w3.org/1999/xlink" width="163" zoomAndPan="magnify" viewBox="0 0 122.25 37.5" height="50" preserveAspectRatio="xMidYMid meet" version="1.0"><defs><g/><clipPath id="4409f4fe69"><path d="M 14 11 L 28.292969 11 L 28.292969 27 L 14 27 Z M 14 11 " clip-rule="nonzero"/></clipPath><clipPath id="f977d1a226"><path d="M 10 20 L 25 20 L 25 34.832031 L 10 34.832031 Z M 10 20 " clip-rule="nonzero"/></clipPath><clipPath id="f8b584c5ef"><path d="M 11 27 L 21 27 L 21 34.832031 L 11 34.832031 Z M 11 27 " clip-rule="nonzero"/></clipPath><clipPath id="a0c3136eb6"><path d="M 1.648438 8 L 5 8 L 5 12 L 1.648438 12 Z M 1.648438 8 " clip-rule="nonzero"/></clipPath><clipPath id="3afc241e4d"><path d="M 8 2.265625 L 11 2.265625 L 11 5 L 8 5 Z M 8 2.265625 " clip-rule="nonzero"/></clipPath></defs><path fill="#f9ed32" d="M 15.636719 6.757812 C 15.867188 6.757812 16.089844 6.710938 16.304688 6.621094 C 16.519531 6.53125 16.707031 6.40625 16.871094 6.238281 C 17.035156 6.074219 17.160156 5.882812 17.246094 5.667969 C 17.335938 5.449219 17.382812 5.226562 17.382812 4.992188 C 17.382812 4.757812 17.335938 4.53125 17.25 4.316406 C 17.160156 4.097656 17.035156 3.90625 16.871094 3.742188 C 16.707031 3.574219 16.519531 3.449219 16.304688 3.359375 C 16.09375 3.269531 15.871094 3.222656 15.640625 3.222656 C 15.410156 3.222656 15.1875 3.265625 14.972656 3.355469 C 14.757812 3.445312 14.570312 3.574219 14.40625 3.738281 C 14.242188 3.902344 14.117188 4.09375 14.027344 4.3125 C 13.9375 4.527344 13.894531 4.753906 13.894531 4.988281 C 13.894531 5.222656 13.9375 5.445312 14.027344 5.664062 C 14.113281 5.878906 14.242188 6.070312 14.402344 6.238281 C 14.566406 6.402344 14.757812 6.53125 14.96875 6.621094 C 15.183594 6.710938 15.40625 6.757812 15.636719 6.757812 Z M 15.636719 6.757812 " fill-opacity="0.78" fill-rule="evenodd"/><path fill="#662d91" d="M 24.085938 8.121094 C 25.050781 9.253906 25.65625 10.558594 25.910156 12.035156 C 26.261719 14.128906 25.722656 16.070312 26.101562 17.371094 C 26.191406 17.664062 26.308594 17.945312 26.457031 18.210938 C 26.101562 18.417969 25.730469 18.585938 25.335938 18.707031 C 24.945312 18.828125 24.542969 18.90625 24.132812 18.933594 C 23.722656 18.960938 23.316406 18.941406 22.910156 18.875 C 22.503906 18.808594 22.113281 18.695312 21.734375 18.539062 C 21.351562 18.378906 20.996094 18.179688 20.664062 17.9375 C 20.328125 17.695312 20.023438 17.421875 19.753906 17.109375 C 19.484375 16.796875 19.25 16.457031 19.054688 16.089844 C 18.863281 15.722656 18.710938 15.339844 18.605469 14.9375 C 18.496094 14.535156 18.4375 14.125 18.421875 13.710938 C 18.410156 13.296875 18.441406 12.882812 18.523438 12.476562 C 18.601562 12.066406 18.726562 11.671875 18.894531 11.292969 C 19.066406 10.914062 19.273438 10.5625 19.523438 10.230469 C 19.773438 9.902344 20.058594 9.605469 20.375 9.339844 C 20.691406 9.074219 21.035156 8.851562 21.40625 8.667969 C 21.773438 8.484375 22.15625 8.34375 22.558594 8.25 C 22.957031 8.15625 23.363281 8.109375 23.773438 8.109375 C 23.875 8.109375 23.980469 8.113281 24.085938 8.121094 Z M 24.085938 8.121094 " fill-opacity="0.78" fill-rule="evenodd"/><g clip-path="url(#4409f4fe69)"><path fill="#92278f" d="M 26.011719 12.957031 C 26.125 14.691406 25.777344 16.261719 26.101562 17.378906 C 26.652344 19.28125 29.097656 21.003906 27.953125 21.984375 C 27.59375 22.277344 26.972656 22.296875 26.605469 22.585938 C 26.027344 23.042969 26.421875 23.539062 26.476562 23.898438 C 26.5 24.066406 26.347656 24.339844 25.84375 24.671875 C 26.222656 24.957031 26.191406 25.195312 26.054688 25.417969 C 25.683594 25.675781 25.292969 25.898438 24.882812 26.082031 C 24.472656 26.269531 24.050781 26.414062 23.613281 26.523438 C 23.179688 26.628906 22.734375 26.699219 22.289062 26.726562 C 21.839844 26.75 21.390625 26.738281 20.945312 26.683594 C 20.5 26.625 20.0625 26.53125 19.636719 26.394531 C 19.207031 26.261719 18.792969 26.085938 18.394531 25.875 C 17.996094 25.664062 17.621094 25.417969 17.269531 25.136719 C 16.914062 24.855469 16.589844 24.546875 16.289062 24.207031 C 15.992188 23.867188 15.726562 23.5 15.496094 23.113281 C 15.261719 22.722656 15.066406 22.316406 14.90625 21.890625 C 14.746094 21.464844 14.625 21.03125 14.539062 20.582031 C 14.457031 20.136719 14.417969 19.683594 14.414062 19.230469 C 14.414062 18.773438 14.453125 18.324219 14.53125 17.875 C 14.609375 17.425781 14.730469 16.988281 14.886719 16.5625 C 15.042969 16.136719 15.238281 15.730469 15.46875 15.339844 C 15.699219 14.949219 15.960938 14.582031 16.257812 14.238281 C 16.554688 13.898438 16.878906 13.585938 17.230469 13.300781 C 17.582031 13.019531 17.957031 12.769531 18.351562 12.554688 C 18.746094 12.34375 19.160156 12.164062 19.585938 12.027344 C 20.015625 11.890625 20.453125 11.789062 20.898438 11.730469 C 21.34375 11.675781 21.789062 11.65625 22.238281 11.679688 C 22.6875 11.703125 23.128906 11.769531 23.566406 11.875 C 24.003906 11.976562 24.425781 12.121094 24.839844 12.304688 C 25.25 12.488281 25.640625 12.707031 26.011719 12.960938 Z M 26.011719 12.957031 " fill-opacity="0.78" fill-rule="evenodd"/></g><g clip-path="url(#f977d1a226)"><path fill="#007fc6" d="M 24.421875 29.605469 C 21.597656 30.769531 17.816406 26.863281 17.308594 34.832031 C 15.472656 33.609375 13.523438 32.605469 11.46875 31.820312 C 11.300781 31.570312 11.148438 31.308594 11.007812 31.035156 C 10.871094 30.761719 10.753906 30.484375 10.648438 30.195312 C 10.546875 29.910156 10.464844 29.617188 10.398438 29.316406 C 10.332031 29.019531 10.28125 28.71875 10.253906 28.414062 C 10.222656 28.109375 10.214844 27.804688 10.222656 27.5 C 10.230469 27.195312 10.257812 26.890625 10.304688 26.589844 C 10.347656 26.289062 10.414062 25.988281 10.496094 25.695312 C 10.578125 25.402344 10.679688 25.113281 10.796875 24.832031 C 10.917969 24.550781 11.050781 24.28125 11.203125 24.015625 C 11.355469 23.753906 11.523438 23.5 11.707031 23.257812 C 11.890625 23.011719 12.085938 22.785156 12.300781 22.566406 C 12.511719 22.347656 12.734375 22.144531 12.972656 21.957031 C 13.207031 21.765625 13.457031 21.59375 13.714844 21.433594 C 13.972656 21.277344 14.238281 21.136719 14.515625 21.011719 C 14.789062 20.890625 15.074219 20.785156 15.363281 20.695312 C 15.648438 20.605469 15.941406 20.539062 16.242188 20.488281 C 16.539062 20.4375 16.835938 20.402344 17.136719 20.390625 C 17.441406 20.378906 17.742188 20.382812 18.039062 20.410156 C 18.339844 20.433594 18.640625 20.480469 18.933594 20.542969 C 19.230469 20.605469 19.519531 20.6875 19.804688 20.785156 C 20.089844 20.886719 20.367188 21.003906 20.636719 21.136719 C 20.90625 21.273438 21.167969 21.425781 21.421875 21.59375 C 21.671875 21.761719 21.914062 21.945312 22.140625 22.144531 C 22.371094 22.34375 22.585938 22.554688 22.789062 22.78125 C 22.992188 23.007812 23.179688 23.246094 23.355469 23.496094 C 23.527344 23.746094 23.683594 24.003906 23.824219 24.273438 C 23.96875 24.542969 24.089844 24.820312 24.199219 25.109375 C 24.304688 25.394531 24.394531 25.683594 24.464844 25.980469 C 24.535156 26.277344 24.589844 26.578125 24.621094 26.882812 C 24.65625 27.1875 24.671875 27.492188 24.667969 27.796875 C 24.664062 28.101562 24.640625 28.40625 24.601562 28.707031 C 24.558594 29.011719 24.5 29.308594 24.421875 29.605469 Z M 24.421875 29.605469 " fill-opacity="0.78" fill-rule="evenodd"/></g><g clip-path="url(#f8b584c5ef)"><path fill="#01a6e6" d="M 20.273438 29.644531 C 18.78125 29.710938 17.578125 30.578125 17.308594 34.832031 C 15.480469 33.617188 13.546875 32.617188 11.503906 31.835938 C 11.515625 31.3125 11.609375 30.808594 11.785156 30.320312 C 11.964844 29.832031 12.210938 29.382812 12.535156 28.976562 C 12.855469 28.570312 13.234375 28.230469 13.664062 27.949219 C 14.097656 27.667969 14.566406 27.46875 15.0625 27.34375 C 15.5625 27.21875 16.066406 27.179688 16.578125 27.222656 C 17.089844 27.265625 17.582031 27.390625 18.054688 27.601562 C 18.523438 27.808594 18.949219 28.085938 19.332031 28.4375 C 19.710938 28.789062 20.027344 29.191406 20.273438 29.644531 Z M 20.273438 29.644531 " fill-opacity="0.78" fill-rule="evenodd"/></g><path fill="#2063b2" d="M 27.097656 22.339844 C 26.921875 22.394531 26.757812 22.472656 26.605469 22.578125 C 26.027344 23.039062 26.421875 23.535156 26.476562 23.894531 C 26.5 24.0625 26.347656 24.335938 25.84375 24.667969 C 26.425781 25.101562 26.035156 25.433594 25.800781 25.753906 C 24.714844 26.546875 26.226562 28.265625 24.433594 29.601562 C 22.625 30.355469 20.425781 29.023438 18.941406 30.046875 C 18.894531 29.769531 18.863281 29.492188 18.851562 29.214844 C 18.835938 28.933594 18.839844 28.65625 18.863281 28.378906 C 18.882812 28.097656 18.921875 27.824219 18.976562 27.550781 C 19.03125 27.273438 19.101562 27.007812 19.191406 26.742188 C 19.277344 26.476562 19.382812 26.21875 19.5 25.964844 C 19.621094 25.714844 19.753906 25.472656 19.90625 25.234375 C 20.054688 25 20.21875 24.777344 20.394531 24.5625 C 20.570312 24.347656 20.761719 24.144531 20.960938 23.953125 C 21.164062 23.765625 21.375 23.585938 21.597656 23.421875 C 21.824219 23.261719 22.054688 23.109375 22.296875 22.976562 C 22.539062 22.839844 22.789062 22.722656 23.042969 22.621094 C 23.300781 22.515625 23.5625 22.429688 23.828125 22.359375 C 24.09375 22.289062 24.367188 22.234375 24.640625 22.199219 C 24.914062 22.164062 25.1875 22.144531 25.460938 22.140625 C 25.738281 22.140625 26.011719 22.15625 26.285156 22.1875 C 26.5625 22.222656 26.832031 22.273438 27.097656 22.339844 Z M 27.097656 22.339844 " fill-opacity="0.78" fill-rule="evenodd"/><path fill="#12bcbc" d="M 6.09375 22.425781 C 6.4375 22.425781 6.765625 22.359375 7.082031 22.226562 C 7.398438 22.09375 7.679688 21.90625 7.921875 21.660156 C 8.164062 21.414062 8.351562 21.132812 8.480469 20.8125 C 8.613281 20.488281 8.679688 20.15625 8.679688 19.808594 C 8.679688 19.460938 8.613281 19.128906 8.480469 18.808594 C 8.351562 18.488281 8.164062 18.203125 7.921875 17.957031 C 7.679688 17.710938 7.402344 17.523438 7.085938 17.390625 C 6.769531 17.257812 6.4375 17.191406 6.09375 17.191406 C 5.753906 17.191406 5.421875 17.257812 5.105469 17.390625 C 4.789062 17.523438 4.511719 17.714844 4.269531 17.957031 C 4.027344 18.203125 3.839844 18.488281 3.710938 18.808594 C 3.578125 19.128906 3.511719 19.460938 3.511719 19.808594 C 3.515625 20.15625 3.578125 20.488281 3.710938 20.808594 C 3.84375 21.128906 4.027344 21.414062 4.269531 21.65625 C 4.511719 21.902344 4.792969 22.09375 5.109375 22.226562 C 5.421875 22.359375 5.753906 22.425781 6.09375 22.425781 Z M 6.09375 22.425781 " fill-opacity="0.78" fill-rule="evenodd"/><path fill="#00b9f1" d="M 11.503906 26.070312 C 11.816406 26.070312 12.117188 26.007812 12.40625 25.890625 C 12.695312 25.769531 12.949219 25.597656 13.171875 25.375 C 13.394531 25.148438 13.566406 24.890625 13.683594 24.601562 C 13.804688 24.308594 13.867188 24.003906 13.867188 23.6875 C 13.867188 23.371094 13.808594 23.066406 13.6875 22.773438 C 13.570312 22.480469 13.398438 22.21875 13.179688 21.996094 C 12.957031 21.773438 12.703125 21.597656 12.414062 21.476562 C 12.125 21.355469 11.824219 21.292969 11.511719 21.292969 C 11.199219 21.292969 10.898438 21.355469 10.609375 21.476562 C 10.320312 21.597656 10.066406 21.769531 9.847656 21.992188 C 9.625 22.214844 9.453125 22.476562 9.335938 22.765625 C 9.214844 23.058594 9.15625 23.363281 9.15625 23.679688 C 9.15625 23.996094 9.214844 24.300781 9.335938 24.59375 C 9.453125 24.882812 9.625 25.140625 9.84375 25.367188 C 10.0625 25.589844 10.316406 25.761719 10.605469 25.882812 C 10.894531 26.003906 11.191406 26.066406 11.503906 26.070312 Z M 11.503906 26.070312 " fill-opacity="0.78" fill-rule="evenodd"/><path fill="#8dc63f" d="M 5.722656 16.058594 C 5.964844 16.058594 6.195312 16.011719 6.417969 15.917969 C 6.636719 15.824219 6.832031 15.691406 7.003906 15.519531 C 7.171875 15.347656 7.304688 15.148438 7.394531 14.925781 C 7.488281 14.699219 7.535156 14.464844 7.535156 14.222656 C 7.535156 13.980469 7.488281 13.746094 7.394531 13.519531 C 7.304688 13.296875 7.171875 13.097656 7.003906 12.925781 C 6.832031 12.753906 6.636719 12.621094 6.414062 12.527344 C 6.195312 12.433594 5.960938 12.390625 5.722656 12.390625 C 5.484375 12.390625 5.25 12.4375 5.03125 12.527344 C 4.808594 12.621094 4.613281 12.753906 4.441406 12.925781 C 4.273438 13.097656 4.144531 13.296875 4.050781 13.523438 C 3.960938 13.746094 3.914062 13.980469 3.914062 14.222656 C 3.914062 14.46875 3.960938 14.699219 4.050781 14.925781 C 4.144531 15.148438 4.273438 15.347656 4.445312 15.519531 C 4.613281 15.691406 4.808594 15.824219 5.03125 15.917969 C 5.253906 16.011719 5.484375 16.054688 5.722656 16.058594 Z M 5.722656 16.058594 " fill-opacity="0.78" fill-rule="evenodd"/><g clip-path="url(#a0c3136eb6)"><path fill="#ffd900" d="M 4.820312 9.667969 C 4.820312 9.878906 4.78125 10.078125 4.703125 10.273438 C 4.621094 10.46875 4.507812 10.640625 4.363281 10.789062 C 4.214844 10.9375 4.046875 11.054688 3.851562 11.132812 C 3.660156 11.214844 3.460938 11.253906 3.253906 11.253906 C 3.046875 11.253906 2.847656 11.214844 2.652344 11.132812 C 2.460938 11.054688 2.292969 10.9375 2.144531 10.789062 C 2 10.640625 1.886719 10.46875 1.804688 10.273438 C 1.726562 10.078125 1.6875 9.878906 1.6875 9.667969 C 1.6875 9.457031 1.726562 9.253906 1.804688 9.058594 C 1.886719 8.863281 2 8.691406 2.144531 8.542969 C 2.292969 8.394531 2.460938 8.28125 2.652344 8.199219 C 2.847656 8.117188 3.046875 8.078125 3.253906 8.078125 C 3.460938 8.078125 3.660156 8.117188 3.851562 8.199219 C 4.046875 8.28125 4.214844 8.394531 4.363281 8.542969 C 4.507812 8.691406 4.621094 8.863281 4.703125 9.058594 C 4.78125 9.253906 4.820312 9.457031 4.820312 9.667969 Z M 4.820312 9.667969 " fill-opacity="0.78" fill-rule="nonzero"/></g><path fill="#009444" d="M 6.566406 6.757812 C 6.757812 6.757812 6.945312 6.71875 7.125 6.644531 C 7.304688 6.570312 7.460938 6.460938 7.597656 6.324219 C 7.738281 6.183594 7.84375 6.023438 7.917969 5.84375 C 7.992188 5.660156 8.027344 5.472656 8.027344 5.273438 C 8.027344 5.078125 7.992188 4.890625 7.917969 4.707031 C 7.84375 4.527344 7.738281 4.367188 7.601562 4.226562 C 7.464844 4.085938 7.304688 3.980469 7.125 3.90625 C 6.945312 3.828125 6.761719 3.792969 6.566406 3.792969 C 6.371094 3.792969 6.183594 3.828125 6.007812 3.90625 C 5.828125 3.980469 5.667969 4.085938 5.53125 4.226562 C 5.394531 4.363281 5.289062 4.527344 5.214844 4.707031 C 5.140625 4.890625 5.101562 5.078125 5.101562 5.273438 C 5.101562 5.472656 5.140625 5.660156 5.214844 5.839844 C 5.289062 6.023438 5.394531 6.183594 5.53125 6.320312 C 5.667969 6.460938 5.828125 6.566406 6.003906 6.644531 C 6.183594 6.71875 6.371094 6.757812 6.566406 6.757812 Z M 6.566406 6.757812 " fill-opacity="0.78" fill-rule="evenodd"/><path fill="#56ba48" d="M 7.0625 10.453125 C 7.328125 10.453125 7.554688 10.355469 7.746094 10.164062 C 7.933594 9.972656 8.027344 9.742188 8.027344 9.472656 C 8.027344 9.203125 7.933594 8.972656 7.746094 8.78125 C 7.554688 8.589844 7.328125 8.492188 7.0625 8.492188 C 6.792969 8.492188 6.566406 8.589844 6.378906 8.78125 C 6.1875 8.972656 6.09375 9.203125 6.09375 9.472656 C 6.09375 9.742188 6.191406 9.972656 6.378906 10.164062 C 6.566406 10.355469 6.792969 10.453125 7.0625 10.453125 Z M 7.0625 10.453125 " fill-opacity="0.78" fill-rule="evenodd"/><g clip-path="url(#3afc241e4d)"><path fill="#fbad17" d="M 9.078125 4.226562 C 9.34375 4.226562 9.570312 4.128906 9.761719 3.9375 C 9.949219 3.746094 10.042969 3.515625 10.042969 3.246094 C 10.042969 2.976562 9.949219 2.746094 9.761719 2.554688 C 9.570312 2.363281 9.34375 2.265625 9.078125 2.265625 C 8.808594 2.265625 8.582031 2.363281 8.394531 2.554688 C 8.203125 2.746094 8.109375 2.976562 8.109375 3.246094 C 8.109375 3.515625 8.207031 3.746094 8.394531 3.9375 C 8.582031 4.128906 8.808594 4.222656 9.078125 4.226562 Z M 9.078125 4.226562 " fill-opacity="0.78" fill-rule="evenodd"/></g><path fill="#f15c22" d="M 3.140625 6.40625 C 3.34375 6.40625 3.515625 6.335938 3.65625 6.1875 C 3.796875 6.042969 3.871094 5.867188 3.867188 5.664062 C 3.867188 5.460938 3.796875 5.285156 3.652344 5.140625 C 3.511719 4.996094 3.339844 4.925781 3.136719 4.925781 C 2.933594 4.925781 2.761719 5 2.621094 5.144531 C 2.476562 5.289062 2.40625 5.460938 2.40625 5.667969 C 2.40625 5.871094 2.476562 6.046875 2.621094 6.191406 C 2.765625 6.335938 2.9375 6.410156 3.140625 6.40625 Z M 3.140625 6.40625 " fill-opacity="0.78" fill-rule="evenodd"/><path fill="#fbad17" d="M 20.53125 13.96875 C 20.53125 14.378906 20.492188 14.78125 20.414062 15.179688 C 20.335938 15.578125 20.21875 15.964844 20.066406 16.339844 C 19.910156 16.714844 19.722656 17.074219 19.5 17.410156 C 19.277344 17.75 19.023438 18.0625 18.738281 18.351562 C 18.457031 18.636719 18.148438 18.894531 17.8125 19.121094 C 17.480469 19.347656 17.128906 19.539062 16.757812 19.691406 C 16.386719 19.847656 16.003906 19.964844 15.609375 20.046875 C 15.214844 20.125 14.816406 20.164062 14.417969 20.164062 C 14.015625 20.164062 13.617188 20.125 13.222656 20.046875 C 12.832031 19.964844 12.449219 19.847656 12.078125 19.691406 C 11.707031 19.539062 11.355469 19.347656 11.019531 19.121094 C 10.6875 18.894531 10.378906 18.636719 10.09375 18.351562 C 9.8125 18.0625 9.558594 17.75 9.335938 17.410156 C 9.109375 17.074219 8.921875 16.714844 8.769531 16.339844 C 8.617188 15.964844 8.5 15.578125 8.421875 15.179688 C 8.34375 14.78125 8.304688 14.378906 8.304688 13.96875 C 8.304688 13.5625 8.34375 13.160156 8.421875 12.761719 C 8.5 12.363281 8.617188 11.976562 8.769531 11.601562 C 8.921875 11.222656 9.109375 10.867188 9.335938 10.527344 C 9.558594 10.191406 9.8125 9.878906 10.09375 9.589844 C 10.378906 9.300781 10.6875 9.046875 11.019531 8.820312 C 11.355469 8.59375 11.707031 8.402344 12.078125 8.246094 C 12.449219 8.09375 12.832031 7.972656 13.222656 7.894531 C 13.617188 7.816406 14.015625 7.777344 14.417969 7.777344 C 14.816406 7.777344 15.214844 7.816406 15.609375 7.894531 C 16.003906 7.972656 16.386719 8.09375 16.757812 8.246094 C 17.128906 8.402344 17.480469 8.59375 17.8125 8.820312 C 18.148438 9.046875 18.457031 9.300781 18.738281 9.589844 C 19.023438 9.878906 19.277344 10.191406 19.5 10.527344 C 19.722656 10.867188 19.910156 11.222656 20.066406 11.601562 C 20.21875 11.976562 20.335938 12.363281 20.414062 12.761719 C 20.492188 13.160156 20.53125 13.5625 20.53125 13.96875 Z M 20.53125 13.96875 " fill-opacity="0.78" fill-rule="nonzero"/><path fill="#ec008b" d="M 17.792969 4.59375 C 20.722656 5.207031 23.175781 6.695312 24.625 8.832031 C 24.574219 9.195312 24.480469 9.546875 24.34375 9.890625 C 24.207031 10.230469 24.03125 10.546875 23.816406 10.84375 C 23.605469 11.140625 23.355469 11.40625 23.078125 11.640625 C 22.796875 11.871094 22.492188 12.066406 22.164062 12.226562 C 21.835938 12.382812 21.496094 12.496094 21.140625 12.566406 C 20.785156 12.636719 20.425781 12.664062 20.0625 12.644531 C 19.699219 12.625 19.347656 12.558594 19 12.449219 C 18.652344 12.339844 18.324219 12.191406 18.015625 12 C 17.707031 11.804688 17.425781 11.578125 17.171875 11.316406 C 16.917969 11.054688 16.699219 10.761719 16.519531 10.445312 C 16.335938 10.128906 16.195312 9.792969 16.097656 9.4375 C 15.996094 9.085938 15.941406 8.726562 15.929688 8.355469 C 15.917969 7.988281 15.953125 7.625 16.03125 7.269531 C 16.109375 6.910156 16.230469 6.566406 16.390625 6.238281 C 16.554688 5.910156 16.753906 5.605469 16.992188 5.328125 C 17.230469 5.050781 17.496094 4.804688 17.792969 4.59375 Z M 17.792969 4.59375 " fill-opacity="0.78" fill-rule="evenodd"/><path fill="#56ba48" d="M 12.359375 11.253906 C 12.84375 11.253906 13.3125 11.160156 13.761719 10.972656 C 14.207031 10.785156 14.605469 10.519531 14.949219 10.167969 C 15.292969 9.820312 15.554688 9.421875 15.742188 8.964844 C 15.929688 8.511719 16.019531 8.039062 16.019531 7.546875 C 16.019531 7.054688 15.929688 6.582031 15.742188 6.125 C 15.558594 5.671875 15.292969 5.269531 14.949219 4.921875 C 14.605469 4.574219 14.210938 4.308594 13.761719 4.117188 C 13.3125 3.929688 12.847656 3.835938 12.359375 3.835938 C 11.875 3.835938 11.40625 3.929688 10.960938 4.117188 C 10.511719 4.308594 10.113281 4.574219 9.769531 4.921875 C 9.429688 5.269531 9.164062 5.671875 8.976562 6.125 C 8.792969 6.582031 8.699219 7.054688 8.699219 7.546875 C 8.699219 8.039062 8.792969 8.511719 8.980469 8.964844 C 9.164062 9.417969 9.429688 9.820312 9.773438 10.167969 C 10.117188 10.515625 10.511719 10.78125 10.960938 10.972656 C 11.40625 11.160156 11.875 11.253906 12.359375 11.253906 Z M 12.359375 11.253906 " fill-opacity="0.78" fill-rule="evenodd"/><g fill="#000000" fill-opacity="1"><g transform="translate(31.642449, 21.695212)"><g><path d="M 5.015625 0.125 C 4.148438 0.125 3.375 -0.0507812 2.6875 -0.40625 C 2 -0.769531 1.457031 -1.269531 1.0625 -1.90625 C 0.675781 -2.539062 0.484375 -3.257812 0.484375 -4.0625 C 0.484375 -4.875 0.675781 -5.597656 1.0625 -6.234375 C 1.457031 -6.867188 2 -7.363281 2.6875 -7.71875 C 3.375 -8.082031 4.148438 -8.265625 5.015625 -8.265625 C 5.878906 -8.265625 6.628906 -8.082031 7.265625 -7.71875 C 7.910156 -7.363281 8.378906 -6.851562 8.671875 -6.1875 L 6.84375 -5.203125 C 6.414062 -5.953125 5.800781 -6.328125 5 -6.328125 C 4.382812 -6.328125 3.875 -6.125 3.46875 -5.71875 C 3.070312 -5.3125 2.875 -4.757812 2.875 -4.0625 C 2.875 -3.375 3.070312 -2.828125 3.46875 -2.421875 C 3.875 -2.015625 4.382812 -1.8125 5 -1.8125 C 5.8125 -1.8125 6.425781 -2.1875 6.84375 -2.9375 L 8.671875 -1.9375 C 8.378906 -1.289062 7.910156 -0.785156 7.265625 -0.421875 C 6.628906 -0.0546875 5.878906 0.125 5.015625 0.125 Z M 5.015625 0.125 "/></g></g></g><g fill="#000000" fill-opacity="1"><g transform="translate(41.351041, 21.695212)"><g><path d="M 5.90625 -8.265625 C 6.65625 -8.265625 7.335938 -8.085938 7.953125 -7.734375 C 8.578125 -7.390625 9.066406 -6.898438 9.421875 -6.265625 C 9.773438 -5.640625 9.953125 -4.90625 9.953125 -4.0625 C 9.953125 -3.226562 9.773438 -2.492188 9.421875 -1.859375 C 9.066406 -1.234375 8.578125 -0.742188 7.953125 -0.390625 C 7.335938 -0.046875 6.65625 0.125 5.90625 0.125 C 4.78125 0.125 3.925781 -0.226562 3.34375 -0.9375 L 3.34375 0 L 1.09375 0 L 1.09375 -11.21875 L 3.453125 -11.21875 L 3.453125 -7.28125 C 4.046875 -7.9375 4.863281 -8.265625 5.90625 -8.265625 Z M 5.484375 -1.8125 C 6.085938 -1.8125 6.582031 -2.015625 6.96875 -2.421875 C 7.363281 -2.835938 7.5625 -3.382812 7.5625 -4.0625 C 7.5625 -4.75 7.363281 -5.296875 6.96875 -5.703125 C 6.582031 -6.117188 6.085938 -6.328125 5.484375 -6.328125 C 4.878906 -6.328125 4.382812 -6.117188 4 -5.703125 C 3.613281 -5.296875 3.421875 -4.75 3.421875 -4.0625 C 3.421875 -3.382812 3.613281 -2.835938 4 -2.421875 C 4.382812 -2.015625 4.878906 -1.8125 5.484375 -1.8125 Z M 5.484375 -1.8125 "/></g></g></g><g fill="#000000" fill-opacity="1"><g transform="translate(52.55671, 21.695212)"><g><path d="M 3.828125 0.125 C 3.148438 0.125 2.488281 0.0390625 1.84375 -0.125 C 1.195312 -0.289062 0.679688 -0.5 0.296875 -0.75 L 1.09375 -2.453125 C 1.457031 -2.222656 1.894531 -2.03125 2.40625 -1.875 C 2.914062 -1.726562 3.421875 -1.65625 3.921875 -1.65625 C 4.921875 -1.65625 5.421875 -1.90625 5.421875 -2.40625 C 5.421875 -2.632812 5.28125 -2.800781 5 -2.90625 C 4.726562 -3.007812 4.3125 -3.09375 3.75 -3.15625 C 3.082031 -3.257812 2.53125 -3.375 2.09375 -3.5 C 1.664062 -3.632812 1.289062 -3.867188 0.96875 -4.203125 C 0.65625 -4.535156 0.5 -5.007812 0.5 -5.625 C 0.5 -6.132812 0.644531 -6.585938 0.9375 -6.984375 C 1.238281 -7.390625 1.671875 -7.703125 2.234375 -7.921875 C 2.804688 -8.148438 3.484375 -8.265625 4.265625 -8.265625 C 4.835938 -8.265625 5.410156 -8.195312 5.984375 -8.0625 C 6.554688 -7.9375 7.023438 -7.765625 7.390625 -7.546875 L 6.609375 -5.875 C 5.890625 -6.269531 5.109375 -6.46875 4.265625 -6.46875 C 3.765625 -6.46875 3.382812 -6.394531 3.125 -6.25 C 2.875 -6.113281 2.75 -5.9375 2.75 -5.71875 C 2.75 -5.46875 2.882812 -5.289062 3.15625 -5.1875 C 3.425781 -5.082031 3.863281 -4.988281 4.46875 -4.90625 C 5.125 -4.789062 5.664062 -4.671875 6.09375 -4.546875 C 6.519531 -4.421875 6.890625 -4.191406 7.203125 -3.859375 C 7.515625 -3.523438 7.671875 -3.0625 7.671875 -2.46875 C 7.671875 -1.957031 7.519531 -1.503906 7.21875 -1.109375 C 6.914062 -0.722656 6.472656 -0.421875 5.890625 -0.203125 C 5.304688 0.015625 4.617188 0.125 3.828125 0.125 Z M 3.828125 0.125 "/></g></g></g><g fill="#000000" fill-opacity="1"><g transform="translate(61.357983, 21.695212)"><g><path d="M 1.09375 -8.140625 L 3.453125 -8.140625 L 3.453125 0 L 1.09375 0 Z M 2.28125 -9.265625 C 1.84375 -9.265625 1.488281 -9.390625 1.21875 -9.640625 C 0.945312 -9.898438 0.8125 -10.21875 0.8125 -10.59375 C 0.8125 -10.957031 0.945312 -11.265625 1.21875 -11.515625 C 1.488281 -11.773438 1.84375 -11.90625 2.28125 -11.90625 C 2.707031 -11.90625 3.054688 -11.78125 3.328125 -11.53125 C 3.597656 -11.289062 3.734375 -10.992188 3.734375 -10.640625 C 3.734375 -10.242188 3.597656 -9.914062 3.328125 -9.65625 C 3.054688 -9.394531 2.707031 -9.265625 2.28125 -9.265625 Z M 2.28125 -9.265625 "/></g></g></g><g fill="#000000" fill-opacity="1"><g transform="translate(66.681189, 21.695212)"><g><path d="M 4.96875 0.125 C 4.101562 0.125 3.332031 -0.0507812 2.65625 -0.40625 C 1.976562 -0.769531 1.445312 -1.269531 1.0625 -1.90625 C 0.675781 -2.539062 0.484375 -3.257812 0.484375 -4.0625 C 0.484375 -4.875 0.675781 -5.597656 1.0625 -6.234375 C 1.445312 -6.867188 1.976562 -7.363281 2.65625 -7.71875 C 3.332031 -8.082031 4.101562 -8.265625 4.96875 -8.265625 C 5.820312 -8.265625 6.582031 -8.082031 7.25 -7.71875 C 7.925781 -7.363281 8.457031 -6.867188 8.84375 -6.234375 C 9.226562 -5.597656 9.421875 -4.875 9.421875 -4.0625 C 9.421875 -3.257812 9.226562 -2.539062 8.84375 -1.90625 C 8.457031 -1.269531 7.925781 -0.769531 7.25 -0.40625 C 6.582031 -0.0507812 5.820312 0.125 4.96875 0.125 Z M 4.96875 -1.8125 C 5.570312 -1.8125 6.066406 -2.015625 6.453125 -2.421875 C 6.835938 -2.835938 7.03125 -3.382812 7.03125 -4.0625 C 7.03125 -4.75 6.835938 -5.296875 6.453125 -5.703125 C 6.066406 -6.117188 5.570312 -6.328125 4.96875 -6.328125 C 4.351562 -6.328125 3.847656 -6.117188 3.453125 -5.703125 C 3.066406 -5.296875 2.875 -4.75 2.875 -4.0625 C 2.875 -3.382812 3.066406 -2.835938 3.453125 -2.421875 C 3.847656 -2.015625 4.351562 -1.8125 4.96875 -1.8125 Z M 4.96875 -1.8125 "/></g></g></g><g fill="#000000" fill-opacity="1"><g transform="translate(77.357589, 21.695212)"><g><path d="M 6.34375 -0.390625 C 6.101562 -0.222656 5.8125 -0.09375 5.46875 0 C 5.132812 0.0820312 4.785156 0.125 4.421875 0.125 C 3.453125 0.125 2.703125 -0.117188 2.171875 -0.609375 C 1.640625 -1.109375 1.375 -1.835938 1.375 -2.796875 L 1.375 -6.140625 L 0.125 -6.140625 L 0.125 -7.953125 L 1.375 -7.953125 L 1.375 -9.9375 L 3.734375 -9.9375 L 3.734375 -7.953125 L 5.765625 -7.953125 L 5.765625 -6.140625 L 3.734375 -6.140625 L 3.734375 -2.828125 C 3.734375 -2.484375 3.820312 -2.21875 4 -2.03125 C 4.175781 -1.84375 4.425781 -1.75 4.75 -1.75 C 5.125 -1.75 5.441406 -1.851562 5.703125 -2.0625 Z M 6.34375 -0.390625 "/></g></g></g><g fill="#000000" fill-opacity="1"><g transform="translate(84.707145, 21.695212)"><g><path d="M 1.984375 0.125 C 1.566406 0.125 1.21875 -0.015625 0.9375 -0.296875 C 0.65625 -0.578125 0.515625 -0.929688 0.515625 -1.359375 C 0.515625 -1.796875 0.65625 -2.144531 0.9375 -2.40625 C 1.21875 -2.675781 1.566406 -2.8125 1.984375 -2.8125 C 2.390625 -2.8125 2.734375 -2.675781 3.015625 -2.40625 C 3.304688 -2.144531 3.453125 -1.796875 3.453125 -1.359375 C 3.453125 -0.929688 3.304688 -0.578125 3.015625 -0.296875 C 2.734375 -0.015625 2.390625 0.125 1.984375 0.125 Z M 1.984375 0.125 "/></g></g></g><g fill="#000000" fill-opacity="1"><g transform="translate(89.440589, 21.695212)"><g><path d="M 1.09375 -11.21875 L 3.453125 -11.21875 L 3.453125 0 L 1.09375 0 Z M 1.09375 -11.21875 "/></g></g></g><g fill="#000000" fill-opacity="1"><g transform="translate(94.763795, 21.695212)"><g><path d="M 1.09375 -8.140625 L 3.453125 -8.140625 L 3.453125 0 L 1.09375 0 Z M 2.28125 -9.265625 C 1.84375 -9.265625 1.488281 -9.390625 1.21875 -9.640625 C 0.945312 -9.898438 0.8125 -10.21875 0.8125 -10.59375 C 0.8125 -10.957031 0.945312 -11.265625 1.21875 -11.515625 C 1.488281 -11.773438 1.84375 -11.90625 2.28125 -11.90625 C 2.707031 -11.90625 3.054688 -11.78125 3.328125 -11.53125 C 3.597656 -11.289062 3.734375 -10.992188 3.734375 -10.640625 C 3.734375 -10.242188 3.597656 -9.914062 3.328125 -9.65625 C 3.054688 -9.394531 2.707031 -9.265625 2.28125 -9.265625 Z M 2.28125 -9.265625 "/></g></g></g><g fill="#000000" fill-opacity="1"><g transform="translate(100.087001, 21.695212)"><g><path d="M 9.171875 -8.140625 L 5.734375 0 L 3.296875 0 L -0.125 -8.140625 L 2.3125 -8.140625 L 4.5625 -2.59375 L 6.890625 -8.140625 Z M 9.171875 -8.140625 "/></g></g></g><g fill="#000000" fill-opacity="1"><g transform="translate(109.901443, 21.695212)"><g><path d="M 9.0625 -4.03125 C 9.0625 -4.007812 9.046875 -3.800781 9.015625 -3.40625 L 2.859375 -3.40625 C 2.972656 -2.894531 3.234375 -2.492188 3.640625 -2.203125 C 4.054688 -1.910156 4.570312 -1.765625 5.1875 -1.765625 C 5.613281 -1.765625 5.988281 -1.828125 6.3125 -1.953125 C 6.644531 -2.078125 6.953125 -2.28125 7.234375 -2.5625 L 8.484375 -1.1875 C 7.710938 -0.3125 6.59375 0.125 5.125 0.125 C 4.207031 0.125 3.394531 -0.0507812 2.6875 -0.40625 C 1.988281 -0.769531 1.445312 -1.269531 1.0625 -1.90625 C 0.675781 -2.539062 0.484375 -3.257812 0.484375 -4.0625 C 0.484375 -4.863281 0.671875 -5.582031 1.046875 -6.21875 C 1.429688 -6.863281 1.953125 -7.363281 2.609375 -7.71875 C 3.265625 -8.082031 4.003906 -8.265625 4.828125 -8.265625 C 5.617188 -8.265625 6.335938 -8.09375 6.984375 -7.75 C 7.628906 -7.40625 8.132812 -6.910156 8.5 -6.265625 C 8.875 -5.628906 9.0625 -4.882812 9.0625 -4.03125 Z M 4.84375 -6.46875 C 4.300781 -6.46875 3.847656 -6.316406 3.484375 -6.015625 C 3.128906 -5.710938 2.910156 -5.300781 2.828125 -4.78125 L 6.84375 -4.78125 C 6.757812 -5.289062 6.535156 -5.695312 6.171875 -6 C 5.804688 -6.3125 5.363281 -6.46875 4.84375 -6.46875 Z M 4.84375 -6.46875 "/></g></g></g><g fill="#38ab6d" fill-opacity="1"><g transform="translate(32.330963, 28.091163)"><g><path d="M 3.890625 0 L 3.890625 -2.265625 L 2.765625 -0.40625 L 2.375 -0.40625 L 1.265625 -2.21875 L 1.265625 0 L 0.453125 0 L 0.453125 -3.78125 L 1.171875 -3.78125 L 2.59375 -1.4375 L 3.984375 -3.78125 L 4.703125 -3.78125 L 4.71875 0 Z M 3.890625 0 "/></g></g></g><g fill="#38ab6d" fill-opacity="1"><g transform="translate(38.46893, 28.091163)"><g><path d="M 0.453125 -3.78125 L 1.328125 -3.78125 L 1.328125 0 L 0.453125 0 Z M 0.453125 -3.78125 "/></g></g></g><g fill="#38ab6d" fill-opacity="1"><g transform="translate(41.213152, 28.091163)"><g><path d="M 3.921875 -3.78125 L 3.921875 0 L 3.203125 0 L 1.3125 -2.296875 L 1.3125 0 L 0.453125 0 L 0.453125 -3.78125 L 1.171875 -3.78125 L 3.046875 -1.484375 L 3.046875 -3.78125 Z M 3.921875 -3.78125 "/></g></g></g><g fill="#38ab6d" fill-opacity="1"><g transform="translate(46.555458, 28.091163)"><g><path d="M 0.453125 -3.78125 L 2.171875 -3.78125 C 2.578125 -3.78125 2.9375 -3.703125 3.25 -3.546875 C 3.570312 -3.390625 3.816406 -3.164062 3.984375 -2.875 C 4.160156 -2.59375 4.25 -2.265625 4.25 -1.890625 C 4.25 -1.515625 4.160156 -1.179688 3.984375 -0.890625 C 3.816406 -0.609375 3.570312 -0.390625 3.25 -0.234375 C 2.9375 -0.078125 2.578125 0 2.171875 0 L 0.453125 0 Z M 2.125 -0.71875 C 2.5 -0.71875 2.800781 -0.820312 3.03125 -1.03125 C 3.257812 -1.238281 3.375 -1.523438 3.375 -1.890625 C 3.375 -2.253906 3.257812 -2.539062 3.03125 -2.75 C 2.800781 -2.957031 2.5 -3.0625 2.125 -3.0625 L 1.328125 -3.0625 L 1.328125 -0.71875 Z M 2.125 -0.71875 "/></g></g></g><g fill="#38ab6d" fill-opacity="1"><g transform="translate(51.995186, 28.091163)"><g/></g></g><g fill="#38ab6d" fill-opacity="1"><g transform="translate(54.495835, 28.091163)"><g><path d="M 3.890625 0 L 3.890625 -2.265625 L 2.765625 -0.40625 L 2.375 -0.40625 L 1.265625 -2.21875 L 1.265625 0 L 0.453125 0 L 0.453125 -3.78125 L 1.171875 -3.78125 L 2.59375 -1.4375 L 3.984375 -3.78125 L 4.703125 -3.78125 L 4.71875 0 Z M 3.890625 0 "/></g></g></g><g fill="#38ab6d" fill-opacity="1"><g transform="translate(60.633801, 28.091163)"><g><path d="M 3.375 -0.703125 L 3.375 0 L 0.453125 0 L 0.453125 -3.78125 L 3.3125 -3.78125 L 3.3125 -3.078125 L 1.3125 -3.078125 L 1.3125 -2.265625 L 3.078125 -2.265625 L 3.078125 -1.578125 L 1.3125 -1.578125 L 1.3125 -0.703125 Z M 3.375 -0.703125 "/></g></g></g><g fill="#38ab6d" fill-opacity="1"><g transform="translate(65.23457, 28.091163)"><g><path d="M 3.375 -0.703125 L 3.375 0 L 0.453125 0 L 0.453125 -3.78125 L 3.3125 -3.78125 L 3.3125 -3.078125 L 1.3125 -3.078125 L 1.3125 -2.265625 L 3.078125 -2.265625 L 3.078125 -1.578125 L 1.3125 -1.578125 L 1.3125 -0.703125 Z M 3.375 -0.703125 "/></g></g></g><g fill="#38ab6d" fill-opacity="1"><g transform="translate(69.83534, 28.091163)"><g><path d="M 1.234375 -3.078125 L 0.015625 -3.078125 L 0.015625 -3.78125 L 3.3125 -3.78125 L 3.3125 -3.078125 L 2.109375 -3.078125 L 2.109375 0 L 1.234375 0 Z M 1.234375 -3.078125 "/></g></g></g><g fill="#38ab6d" fill-opacity="1"><g transform="translate(74.149233, 28.091163)"><g><path d="M 1.6875 0.0625 C 1.394531 0.0625 1.109375 0.0234375 0.828125 -0.046875 C 0.546875 -0.128906 0.320312 -0.238281 0.15625 -0.375 L 0.453125 -1.03125 C 0.609375 -0.914062 0.796875 -0.820312 1.015625 -0.75 C 1.242188 -0.675781 1.472656 -0.640625 1.703125 -0.640625 C 1.953125 -0.640625 2.132812 -0.675781 2.25 -0.75 C 2.363281 -0.820312 2.421875 -0.921875 2.421875 -1.046875 C 2.421875 -1.128906 2.382812 -1.203125 2.3125 -1.265625 C 2.25 -1.328125 2.160156 -1.375 2.046875 -1.40625 C 1.941406 -1.445312 1.796875 -1.488281 1.609375 -1.53125 C 1.316406 -1.59375 1.078125 -1.660156 0.890625 -1.734375 C 0.710938 -1.804688 0.554688 -1.914062 0.421875 -2.0625 C 0.296875 -2.21875 0.234375 -2.421875 0.234375 -2.671875 C 0.234375 -2.890625 0.289062 -3.085938 0.40625 -3.265625 C 0.519531 -3.441406 0.695312 -3.582031 0.9375 -3.6875 C 1.175781 -3.789062 1.472656 -3.84375 1.828125 -3.84375 C 2.066406 -3.84375 2.300781 -3.8125 2.53125 -3.75 C 2.757812 -3.695312 2.960938 -3.617188 3.140625 -3.515625 L 2.859375 -2.84375 C 2.515625 -3.039062 2.164062 -3.140625 1.8125 -3.140625 C 1.570312 -3.140625 1.390625 -3.097656 1.265625 -3.015625 C 1.148438 -2.941406 1.09375 -2.84375 1.09375 -2.71875 C 1.09375 -2.582031 1.160156 -2.484375 1.296875 -2.421875 C 1.429688 -2.359375 1.640625 -2.296875 1.921875 -2.234375 C 2.210938 -2.171875 2.445312 -2.101562 2.625 -2.03125 C 2.8125 -1.96875 2.96875 -1.859375 3.09375 -1.703125 C 3.226562 -1.554688 3.296875 -1.359375 3.296875 -1.109375 C 3.296875 -0.890625 3.234375 -0.691406 3.109375 -0.515625 C 2.992188 -0.335938 2.816406 -0.195312 2.578125 -0.09375 C 2.335938 0.0078125 2.039062 0.0625 1.6875 0.0625 Z M 1.6875 0.0625 "/></g></g></g><g fill="#38ab6d" fill-opacity="1"><g transform="translate(78.571381, 28.091163)"><g/></g></g><g fill="#38ab6d" fill-opacity="1"><g transform="translate(81.072032, 28.091163)"><g><path d="M 3.890625 0 L 3.890625 -2.265625 L 2.765625 -0.40625 L 2.375 -0.40625 L 1.265625 -2.21875 L 1.265625 0 L 0.453125 0 L 0.453125 -3.78125 L 1.171875 -3.78125 L 2.59375 -1.4375 L 3.984375 -3.78125 L 4.703125 -3.78125 L 4.71875 0 Z M 3.890625 0 "/></g></g></g><g fill="#38ab6d" fill-opacity="1"><g transform="translate(87.21, 28.091163)"><g><path d="M 2.9375 -0.8125 L 1.1875 -0.8125 L 0.84375 0 L -0.046875 0 L 1.640625 -3.78125 L 2.5 -3.78125 L 4.1875 0 L 3.28125 0 Z M 2.671875 -1.46875 L 2.0625 -2.921875 L 1.46875 -1.46875 Z M 2.671875 -1.46875 "/></g></g></g><g fill="#38ab6d" fill-opacity="1"><g transform="translate(92.324971, 28.091163)"><g><path d="M 2.265625 0.0625 C 1.878906 0.0625 1.53125 -0.0195312 1.21875 -0.1875 C 0.90625 -0.351562 0.65625 -0.582031 0.46875 -0.875 C 0.289062 -1.175781 0.203125 -1.515625 0.203125 -1.890625 C 0.203125 -2.265625 0.289062 -2.597656 0.46875 -2.890625 C 0.65625 -3.191406 0.90625 -3.425781 1.21875 -3.59375 C 1.53125 -3.757812 1.878906 -3.84375 2.265625 -3.84375 C 2.585938 -3.84375 2.878906 -3.785156 3.140625 -3.671875 C 3.410156 -3.554688 3.640625 -3.390625 3.828125 -3.171875 L 3.265625 -2.65625 C 3.003906 -2.957031 2.6875 -3.109375 2.3125 -3.109375 C 2.070312 -3.109375 1.859375 -3.054688 1.671875 -2.953125 C 1.492188 -2.847656 1.351562 -2.703125 1.25 -2.515625 C 1.144531 -2.335938 1.09375 -2.128906 1.09375 -1.890625 C 1.09375 -1.660156 1.144531 -1.453125 1.25 -1.265625 C 1.351562 -1.078125 1.492188 -0.929688 1.671875 -0.828125 C 1.859375 -0.734375 2.070312 -0.6875 2.3125 -0.6875 C 2.6875 -0.6875 3.003906 -0.832031 3.265625 -1.125 L 3.828125 -0.609375 C 3.640625 -0.390625 3.410156 -0.222656 3.140625 -0.109375 C 2.878906 0.00390625 2.585938 0.0625 2.265625 0.0625 Z M 2.265625 0.0625 "/></g></g></g><g fill="#38ab6d" fill-opacity="1"><g transform="translate(97.261322, 28.091163)"><g><path d="M 3.921875 -3.78125 L 3.921875 0 L 3.046875 0 L 3.046875 -1.546875 L 1.328125 -1.546875 L 1.328125 0 L 0.453125 0 L 0.453125 -3.78125 L 1.328125 -3.78125 L 1.328125 -2.296875 L 3.046875 -2.296875 L 3.046875 -3.78125 Z M 3.921875 -3.78125 "/></g></g></g><g fill="#38ab6d" fill-opacity="1"><g transform="translate(102.603626, 28.091163)"><g><path d="M 0.453125 -3.78125 L 1.328125 -3.78125 L 1.328125 0 L 0.453125 0 Z M 0.453125 -3.78125 "/></g></g></g><g fill="#38ab6d" fill-opacity="1"><g transform="translate(105.347846, 28.091163)"><g><path d="M 3.921875 -3.78125 L 3.921875 0 L 3.203125 0 L 1.3125 -2.296875 L 1.3125 0 L 0.453125 0 L 0.453125 -3.78125 L 1.171875 -3.78125 L 3.046875 -1.484375 L 3.046875 -3.78125 Z M 3.921875 -3.78125 "/></g></g></g><g fill="#38ab6d" fill-opacity="1"><g transform="translate(110.690149, 28.091163)"><g><path d="M 3.375 -0.703125 L 3.375 0 L 0.453125 0 L 0.453125 -3.78125 L 3.3125 -3.78125 L 3.3125 -3.078125 L 1.3125 -3.078125 L 1.3125 -2.265625 L 3.078125 -2.265625 L 3.078125 -1.578125 L 1.3125 -1.578125 L 1.3125 -0.703125 Z M 3.375 -0.703125 "/></g></g></g><g fill="#38ab6d" fill-opacity="1"><g transform="translate(115.290916, 28.091163)"><g><path d="M 1.6875 0.0625 C 1.394531 0.0625 1.109375 0.0234375 0.828125 -0.046875 C 0.546875 -0.128906 0.320312 -0.238281 0.15625 -0.375 L 0.453125 -1.03125 C 0.609375 -0.914062 0.796875 -0.820312 1.015625 -0.75 C 1.242188 -0.675781 1.472656 -0.640625 1.703125 -0.640625 C 1.953125 -0.640625 2.132812 -0.675781 2.25 -0.75 C 2.363281 -0.820312 2.421875 -0.921875 2.421875 -1.046875 C 2.421875 -1.128906 2.382812 -1.203125 2.3125 -1.265625 C 2.25 -1.328125 2.160156 -1.375 2.046875 -1.40625 C 1.941406 -1.445312 1.796875 -1.488281 1.609375 -1.53125 C 1.316406 -1.59375 1.078125 -1.660156 0.890625 -1.734375 C 0.710938 -1.804688 0.554688 -1.914062 0.421875 -2.0625 C 0.296875 -2.21875 0.234375 -2.421875 0.234375 -2.671875 C 0.234375 -2.890625 0.289062 -3.085938 0.40625 -3.265625 C 0.519531 -3.441406 0.695312 -3.582031 0.9375 -3.6875 C 1.175781 -3.789062 1.472656 -3.84375 1.828125 -3.84375 C 2.066406 -3.84375 2.300781 -3.8125 2.53125 -3.75 C 2.757812 -3.695312 2.960938 -3.617188 3.140625 -3.515625 L 2.859375 -2.84375 C 2.515625 -3.039062 2.164062 -3.140625 1.8125 -3.140625 C 1.570312 -3.140625 1.390625 -3.097656 1.265625 -3.015625 C 1.148438 -2.941406 1.09375 -2.84375 1.09375 -2.71875 C 1.09375 -2.582031 1.160156 -2.484375 1.296875 -2.421875 C 1.429688 -2.359375 1.640625 -2.296875 1.921875 -2.234375 C 2.210938 -2.171875 2.445312 -2.101562 2.625 -2.03125 C 2.8125 -1.96875 2.96875 -1.859375 3.09375 -1.703125 C 3.226562 -1.554688 3.296875 -1.359375 3.296875 -1.109375 C 3.296875 -0.890625 3.234375 -0.691406 3.109375 -0.515625 C 2.992188 -0.335938 2.816406 -0.195312 2.578125 -0.09375 C 2.335938 0.0078125 2.039062 0.0625 1.6875 0.0625 Z M 1.6875 0.0625 "/></g></g></g></svg>